<svg xmlns="http://www.w3.org/2000/svg" viewBox="0 0 64 64" style="enable-background:new 0 0 64 64" xml:space="preserve">
  <path d="M31 10c0 .6-.4 1-1 1h-1c-.6 0-1-.4-1-1s.4-1 1-1h1c.6 0 1 .4 1 1zm4-1h-1c-.6 0-1 .4-1 1s.4 1 1 1h1c.6 0 1-.4 1-1s-.4-1-1-1zm29 53v1c0 .6-.4 1-1 1H49c-1.8 0-3.3-1.2-3.8-2.8l-3 .7h-.1l-1.8.2-.1.4c-.2.9-1.1 1.5-2 1.5-.9 0-1.7-.6-1.9-1.4l-4.2.4h-.2l-4.2-.4c-.3.8-1 1.4-1.9 1.4-.9 0-1.7-.6-2-1.5l-.1-.3-1.8-.2-4.1-.8c-.5 1.6-2 2.8-3.8 2.8H1c-.6 0-1-.4-1-1v-1c0-1.3.9-2.5 2.1-2.9.3-1.3 1.3-2.4 2.6-2.9l-2.4-6.3C1 49.6 0 48.4 0 47c0-2.8 1.1-5.5 3.1-7.5l2-2L10 16.8v-.1c0-.1.1-.2.1-.2L16 9.6l2-5.7V3.6c0-.1 0-.1.1-.1 0 0 0-.1.1-.1l2-2c.3-.3.5-.4.8-.4h2.9l7.9-1h.3L40 1h3c.3 0 .5.1.7.3l2 2v.1s0 .1.1.1l.1.1v.1l.1.2 1.9 5.6 5.9 6.9c.1.1.1.2.2.3l4.9 20.7 2 2c2 2 3.1 4.7 3.1 7.5 0 1.4-1 2.6-2.3 2.9l-2.4 6.3c1.3.5 2.3 1.6 2.6 2.9 1.2.5 2.1 1.7 2.1 3zM47 19.6c0-.8-.2-1.7-.6-2.4l-3-5.2-5.6-1c-.5-.1-.8-.5-.8-1 0-.8-.5-1.4-1.2-1.7l-3.2-1.1c-.4-.1-.8-.1-1.1 0l-3.2 1.1c-.8.3-1.3.9-1.3 1.7 0 .5-.4.9-.8 1l-5.5.9-3 5.2c-.4.7-.6 1.6-.6 2.4 0 1.3.5 2.5 1.4 3.4H25c.9 0 1.6-.5 2-1.2l1.2-2.4c.7-1.4 2.2-2.3 3.8-2.3s3.1.9 3.8 2.3l1.2 2.4c.4.8 1.1 1.2 2 1.2h6.6c.9-.8 1.4-2 1.4-3.3zm-20.9 5.3c-.1 0-.1 0 0 0l-.1 1.6 1.2.9c1.4 1 3.1 1.6 4.8 1.6s3.4-.6 4.8-1.6l1.2-.9v-1.6h-.1c-.3-.1-.5-.2-.7-.3 0 0-.1 0-.1-.1-.2-.1-.4-.2-.6-.4 0 0-.1 0-.1-.1l-.6-.6-.1-.1c-.2-.2-.3-.4-.5-.7L34 20.2c-.4-.8-1.1-1.2-2-1.2s-1.6.5-2 1.2l-1.2 2.4c-.1.3-.3.5-.5.7l-.1.1-.6.6s-.1 0-.1.1c-.2.1-.4.3-.6.4l-.1.1c-.2.1-.5.2-.7.3zM25.8 36c4.1 1.1 8.4 1.1 12.5 0 0-2.4 0-4.8-.1-7.1l-.2.1c-1.7 1.3-3.9 2-6 2s-4.3-.7-6-2l-.2-.1c0 2.4-.1 4.7 0 7.1zm-5-29.3.9-.9c-.5-.5-1.2-.9-2-.9l-.1.2c-.1.4.5 1.1 1.2 1.6zm23.5-1.5-.1-.2c-.8 0-1.5.3-2 .9l.9.9c.8-.6 1.4-1.3 1.2-1.6zm-23.1-2s.1 0 .1.1l.6.3c.1 0 .1.1.2.1.2.1.5.3.7.5l.1.1.5.5c0 .1.1.1.1.2.2.2.3.5.4.7.2.4.1.8-.2 1.2l-1.8 1.8-.4 1.2 3.6-.6c.3-1.3 1.2-2.3 2.5-2.7l3.2-1.1c.8-.3 1.6-.3 2.4 0l3.2 1.1c1.3.4 2.2 1.5 2.5 2.7l3.6.6-.4-1.2-1.8-1.8c-.3-.3-.4-.8-.2-1.2.1-.3.3-.5.4-.7 0-.1.1-.1.1-.2.1-.2.3-.4.5-.5l.1-.1c.2-.2.4-.3.7-.5.1 0 .1-.1.2-.1l.6-.3s.1 0 .1-.1l-.2-.2h-2.7L32 2l-7.9 1h-2.7l-.2.2zM16 60.1l-1.8-7.4L9.7 51l-5.2-.7L6.7 56H9c.6 0 1 .4 1 1s-.4 1-1 1H6c-.7 0-1.4.4-1.7 1H8c.6 0 1 .4 1 1s-.4 1-1 1H3c-.6 0-1 .4-1 1h12c1.1 0 1.9-.8 2-1.9zm6.2-.1.9.1c-2.3-7.9-3.8-16.1-4.6-24.2-.2-.1-.3-.2-.4-.4l-3-5c-.3-.5-.1-1.1.3-1.4s1.1-.1 1.4.3l1.4 2.3c-.1-1.9-.2-3.7-.2-5.6l-.1.3c-.2.4-.5.6-.9.6-.2 0-.3 0-.4-.1-.5-.2-.7-.8-.4-1.3l.7-1.4c-.3-.3-.5-.6-.7-.9l-.4.4c-.3.2-.5.3-.8.3s-.5-.1-.7-.3c-.4-.4-.4-1 0-1.4l.9-.9c-.1-.3-.1-.5-.2-.8l-.6.3c-.1.1-.2.1-.4.1-.4 0-.7-.2-.9-.6-.2-.5 0-1.1.4-1.3l1.6-.8c0-.1 0-.2.1-.3H14c-.6 0-1-.4-1-1s.4-1 1-1h2l3.1-5.4.7-2.1c-.3-.2-.7-.5-1-.8l-.9 2.6c0 .1-.1.2-.2.3L12 17.2l1.9 8.5v.3l-.4 4.4c-.3 3.3.8 6.5 3.1 8.8.4.4.4 1 0 1.4s-1 .4-1.4 0c-2.8-2.8-4.1-6.6-3.7-10.4l.4-4.2-1-4.6-3.8 16.3c3 3 6.5 5.5 10.3 7.4.5.2.7.8.4 1.3-.1.4-.4.6-.8.6-.2 0-.3 0-.4-.1-3.9-1.9-7.4-4.5-10.5-7.5l-1.5 1.5C2.9 42.5 2 44.7 2 47c0 .6.4 1 1 1h.1l7 1c.1 0 .2 0 .2.1l5 2s.1 0 .1.1c0 0 .1 0 .1.1l4 3c.4.3.5 1 .2 1.4-.1.2-.4.3-.7.3-.2 0-.4-.1-.6-.2l-1.7-1.3 1.2 4.7 4.3.8zm3.6 1.9c.1 0 .1 0 0 0v-.3c-1.2-8.1-1.9-16.4-2-24.8-.1-3.9 0-7.9.2-11.8h-1v1c0 .6-.4 1-1 1s-1-.4-1-1v-1h-1c0 3.4.2 6.8.5 10.1.7 8.7 2.4 17.4 4.9 25.9v.1l.4.8zm10.5-1.3c1.1-7.4 1.7-14.9 1.9-22.5-2 .5-4.1.8-6.2.8s-4.2-.3-6.2-.8c.2 7.6.8 15.1 1.9 22.5l4.3.4 4.3-.4zm2 1.4.3-1v-.1c2.5-8.4 4.2-17.1 4.9-25.8.3-3.3.5-6.7.5-10h-1v1c0 .6-.4 1-1 1s-1-.4-1-1v-1h-.9c.2 3.9.3 7.9.2 11.8-.1 8.4-.8 16.7-2 24.8v.4c-.1-.1 0-.1 0-.1zm6.9-2.8 1.6-4.3-1.3.9c-.1.1-.3.2-.5.2-.3 0-.6-.1-.8-.4-.3-.4-.2-1.1.2-1.4l4-3s.1 0 .1-.1l.1-.1 5-2c.1 0 .2 0 .2-.1l7-1h.1c.6 0 1-.4 1-1 0-2.3-.9-4.5-2.5-6.1L58 39.4c-3.1 3-6.7 5.5-10.5 7.5-.2.1-.3.1-.5.1-.4 0-.7-.2-.9-.6-.2-.5 0-1.1.4-1.3 3.8-1.9 7.3-4.4 10.3-7.4L53 21.5l-1 4.6.4 4.2c.4 3.9-1 7.7-3.7 10.4-.4.4-1 .4-1.4 0s-.4-1 0-1.4c2.3-2.3 3.5-5.5 3.1-8.8l-.4-4.4v-.3l1.9-8.5-5.7-6.6c-.1-.1-.1-.2-.2-.3l-.9-2.6c-.3.3-.6.5-1 .8l.7 2.1L48 16h2c.6 0 1 .4 1 1s-.4 1-1 1h-1.2c0 .1 0 .2.1.3l1.6.8c.5.2.7.8.4 1.3-.2.4-.5.6-.9.6-.2 0-.3 0-.4-.1l-.6-.3c0 .3-.1.5-.2.8l.9.9c.4.4.4 1 0 1.4-.2.2-.4.3-.7.3s-.5-.1-.7-.3l-.4-.4c-.2.3-.4.6-.7.9l.7 1.4c.2.5 0 1.1-.4 1.3-.2.1-.3.1-.5.1-.4 0-.7-.2-.9-.6l-.1-.2c0 1.9-.1 3.7-.2 5.6l1.4-2.3c.3-.5.9-.6 1.4-.3.5.3.6.9.3 1.4l-3 5c-.1.2-.2.3-.4.4-.7 8.2-2.3 16.3-4.6 24.2l.9-.1 3.4-.9zM62 62c0-.6-.4-1-1-1h-5c-.6 0-1-.4-1-1s.4-1 1-1h3.7c-.3-.6-1-1-1.7-1h-3c-.6 0-1-.4-1-1s.4-1 1-1h2.3l2.2-5.8-5.2.8-4.5 1.8-2.8 7.4c.1 1 .9 1.8 2 1.8h13zM40 18c-.6 0-1 .4-1 1v1c0 .6.4 1 1 1s1-.4 1-1v-1c0-.6-.4-1-1-1zm4 0c-.6 0-1 .4-1 1v1c0 .6.4 1 1 1s1-.4 1-1v-1c0-.6-.4-1-1-1zm-5-4c0-.6-.4-1-1-1s-1 .4-1 1v1c0 .6.4 1 1 1s1-.4 1-1v-1zm-5-1c-.6 0-1 .4-1 1v1c0 .6.4 1 1 1s1-.4 1-1v-1c0-.6-.4-1-1-1zm9 1c0-.6-.4-1-1-1s-1 .4-1 1v1c0 .6.4 1 1 1s1-.4 1-1v-1zm-19 4c-.6 0-1 .4-1 1v1c0 .6.4 1 1 1s1-.4 1-1v-1c0-.6-.4-1-1-1zm-4 0c-.6 0-1 .4-1 1v1c0 .6.4 1 1 1s1-.4 1-1v-1c0-.6-.4-1-1-1zm6-5c-.6 0-1 .4-1 1v1c0 .6.4 1 1 1s1-.4 1-1v-1c0-.6-.4-1-1-1zm4 0c-.6 0-1 .4-1 1v1c0 .6.4 1 1 1s1-.4 1-1v-1c0-.6-.4-1-1-1zm-7 1c0-.6-.4-1-1-1s-1 .4-1 1v1c0 .6.4 1 1 1s1-.4 1-1v-1zm12.9 33.7c-.2-.5-.7-.8-1.3-.6-1.7.6-3.6.6-5.4 0-.5-.2-1.1.1-1.3.6-.2.5.1 1.1.6 1.3 1.1.4 2.2.5 3.3.5s2.2-.2 3.3-.5c.7-.2 1-.8.8-1.3z"/>
</svg>
