<svg xmlns="http://www.w3.org/2000/svg" viewBox="0 0 64 64" style="enable-background:new 0 0 64 64" xml:space="preserve">
  <path d="m63.6 62.2-5.9-3.9-2.9-2.9c-.2-.2-.5-.3-.8-.3l-6.5.9-.2-.2 2.6-6.4c.8-2.1 1.3-4.3 1.3-6.5 0-2-.3-3.9-1-5.8l-2.8-8c.7.5 1.4 1.1 2.2 1.7C56 36.5 58 43.2 58 43.3c.1.4.5.7 1 .7h.3c.5-.2.8-.7.7-1.2-.1-.3-2.2-7.4-9.3-13.5-1.6-1.4-3.1-2.5-4.6-3.4L45 22.8v-.2c2.3.7 4.9 1.8 7.6 3.3 6.8 3.9 9.8 6.8 9.8 6.8.2.2.5.3.7.3.3 0 .5-.1.7-.3.4-.4.4-1 0-1.4-.1-.1-3.2-3.1-10.2-7.2-3.2-1.8-6.3-3-8.9-3.8l-.3-1.9c2.6.3 5.6.8 8.4 1.6 6.7 1.9 9.7 3.9 9.7 3.9.2.1.4.2.6.2.3 0 .6-.2.8-.4.3-.5.2-1.1-.3-1.4-.1-.1-3.2-2.1-10.3-4.1-3.2-.9-6.5-1.4-9.3-1.7l-.2-1c.3.1.6.2.9.2.7 0 1.3-.3 1.8-.7.5-.5.8-1.1.8-1.8s-.3-1.3-.8-1.8l-.1-.1L43 8.8c-.5-2.1-1.6-3.9-3.2-5.4C37.8 1.1 35 0 32 0c-5.2 0-9.8 3.6-11.1 8.6l-3.4 2.5-.1.1c-.5.5-.8 1.1-.8 1.8s.3 1.3.8 1.8 1.1.7 1.8.7c.3 0 .6-.1.9-.2l-.2 1c-2.7.3-6.1.8-9.3 1.7C3.5 20 .4 22 .3 22.1c-.5.3-.6.9-.3 1.4.4.3.7.5 1 .5.2 0 .4-.1.6-.2 0 0 3-2 9.7-3.9 2.8-.8 5.8-1.3 8.4-1.6l-.3 1.9c-2.5.8-5.7 2-8.9 3.8-7 4-10.1 7-10.2 7.2-.4.4-.4 1 0 1.4.2.3.4.4.7.4.3 0 .5-.1.7-.3 0 0 3-3 9.8-6.8 2.6-1.5 5.3-2.6 7.6-3.3v.2L18 25.9c-1.4.9-3 2-4.6 3.4C6.2 35.4 4.1 42.4 4 42.7c-.2.5.2 1.1.7 1.2H5c.4 0 .8-.3 1-.7 0-.1 2-6.8 8.7-12.5.7-.6 1.4-1.2 2.2-1.7L14 37c-.3.7-.5 1.5-.6 2.2 0 0-.1 0-.1.1C10.6 42 8.1 45 6 48.2l-.5.8H4c-.3 0-.5.1-.7.3l-3 3c-.2.2-.3.4-.3.7v4c0 .2.1.4.2.6l2.4 3.2-2.1 1.4c-.4.2-.5.7-.4 1.1.1.4.5.7.9.7h19.2c1.9 0 3.7-.7 5.2-1.9l6.5.9h.3l6.5-.9c1.4 1.3 3.2 1.9 5.2 1.9H63c.4 0 .8-.3 1-.7.1-.4-.1-.9-.4-1.1zM43 23.1v.2l.4 1c-2.1-1.1-3.8-1.7-4.9-2 .3-.4.5-.8.7-1.3.6.1 1.9.4 3.6.8l.2 1.3zm-7.9-6.8.7.5c.8.5 1.4 1.4 1.6 2.3.2 1.1-.3 2.3-1.4 2.8l-3-1.5v-1.1l.8-1.6 1.3-1.4zm-2.8 0c-.1.1-.1.2-.2.3l-.1.2-.1-.2c0-.1-.1-.2-.2-.3L30.4 15l1-1h1.2l1 1-1.3 1.3zm-4.1.5.7-.5 1.3 1.3.8 1.6v1.1l-3 1.5c-1-.5-1.6-1.7-1.4-2.8.2-.9.8-1.7 1.6-2.2zm3.8 5.3 2 1-.7.5c-.8.5-1.8.5-2.6 0l-.7-.5 2-1zm10.5-2.4c-1.5-.4-2.6-.6-3.1-.7v-.3c0-.2-.1-.5-.2-.7.8 0 1.8.1 3.1.2l.2 1.5zm2.9-6.7c0 .1-.1.3-.2.4-.2.2-.5.2-.7.1l-1-.6-.1-1.5 1.8 1.3c.1 0 .2.2.2.3zm-26.6.4c-.1-.1-.2-.2-.2-.4 0-.1 0-.3.1-.4l1.8-1.3-.1 1.5-1 .6c-.1.2-.4.2-.6 0zm3.6.1v-.1l.1-1.7.1.4C23 13.2 24 14 25.2 14c1.5 0 2.7-1.2 2.7-2.7V9c0-.3-.1-.6-.4-.8-.1-.2-.4-.2-.7-.2l-3.9 1C24 4.9 27.7 2 32 2c2.4 0 4.8.9 6.5 2.6 1.2 1.2 2.1 2.7 2.6 4.4l-3.9-1c-.3-.1-.6 0-.9.2s-.3.5-.3.8v2.3c0 1.5 1.2 2.7 2.7 2.7 1.2 0 2.2-.8 2.6-1.9l.1-.4.1 1.7v.1l.4 2.7c-2.2-.2-3.8-.2-3.9-.2-.3-.3-.6-.7-1-.9l-1.3-.9-1.9-1.9c-.3-.2-.5-.3-.8-.3h-2c-.3 0-.5.1-.7.3l-1.9 1.9-1.3.9c-.4.3-.7.6-1 .9-.1 0-1.7 0-4 .2l.3-2.7zm1.9-2.8 1.7-.4v1c0 .4-.3.7-.7.7-.3 0-.6-.2-.7-.5l-.3-.8zm15.4 0-.3.8c-.1.3-.4.5-.7.5-.4 0-.7-.3-.7-.7v-1l1.7.4zm-18 7.5c1.3-.1 2.4-.2 3.1-.2-.1.2-.2.4-.2.7v.3c-.5.1-1.6.3-3.1.7l.2-1.5zm-.8 5.1v-.2l.2-1.3c1.7-.5 3-.7 3.6-.8.2.5.4.9.7 1.3-1.1.3-2.8.9-4.9 2l.4-1zm-6.6 26 1 2.5-2.6-2.6c-.2-.1-.4-.2-.7-.2H7.9c1.5-2.3 3.3-4.5 5.1-6.5v.3c0 2.3.4 4.4 1.3 6.5zM2 56.7v-3.3L4.4 51H11.6l4.9 4.9-6.3-.9-3.9-1c-.3 0-.5 0-.7.1l-2 1c-.5.2-.7.8-.4 1.3s.8.7 1.3.4l1.7-.8 1.8.5-1.7 1.7-2.1 1.4L2 56.7zM43.8 62c-1.5 0-2.9-.5-3.9-1.5v-.1c-.5-2.2-.5-4.5.1-6.6.6-2.1 1.7-4 3.3-5.5l1.5-1.5c.4-.4.4-1 0-1.4s-1-.4-1.4 0l-1.5 1.5c-1.8 1.8-3.1 4-3.8 6.4-.7 2.3-.7 4.7-.3 7L32 61l-5.8-.8c.5-2.3.4-4.7-.3-7-.7-2.4-2-4.6-3.8-6.4l-1.5-1.5c-.4-.4-1-.4-1.4 0s-.4 1 0 1.4l1.5 1.5c1.5 1.5 2.7 3.5 3.3 5.5.6 2.2.7 4.5.1 6.6v.1c-1.1 1-2.5 1.5-3.9 1.5H4.3l.3-.2 2.7-1.8 4.6.9h.2c.5 0 .9-.3 1-.8.1-.5-.2-1.1-.8-1.2L9 58.4l1.3-1.3 6.5.9h.4s.1 0 .1-.1c.1 0 .2-.1.2-.2h.1l1-1c.1-.1.1-.2.2-.3V56c0-.1 0-.2-.1-.3l-2.8-7c-.7-1.8-1.1-3.8-1.1-5.8 0-1.8.3-3.5.9-5.2l3.7-10.5c4.4-2.6 7.5-3.2 7.6-3.2.1 0 .2-.1.3-.1l2.1 1.4c.7.5 1.5.7 2.4.7s1.7-.2 2.4-.7l2.1-1.4c.1.1.2.1.3.1 0 0 3.2.6 7.6 3.2l3.7 10.5c.6 1.7.9 3.4.9 5.2 0 2-.4 3.9-1.1 5.8l-2.8 7.1c-.1.4-.1.8.2 1.1l1 1c.2.2.5.3.8.3l6.5-.9 1.3 1.3-2.9.4c-.5.1-.9.6-.8 1.2.1.5.5.8 1 .8h.2l4.6-.9 2.9 1.9H43.8zM22.1 27.4c-.2-.5 0-1.1.6-1.3.5-.2 1.1 0 1.3.6 0 .1 1.8 4.3 8 4.3s8-4.2 8.1-4.4c.2-.5.8-.8 1.3-.5.5.2.8.8.6 1.3-.2.2-2.4 5.6-10 5.6s-9.8-5.4-9.9-5.6zm21.8 2.9c0 .3-2.3 6.7-11.9 6.7s-11.9-6.4-11.9-6.7c-.2-.5.1-1.1.6-1.3.5-.2 1.1.1 1.3.6 0 .3 1.9 5.4 10 5.4 8.2 0 10-5.3 10.1-5.3.2-.5.7-.8 1.3-.6.4.1.7.7.5 1.2z"/>
</svg>
