<svg xmlns="http://www.w3.org/2000/svg" viewBox="0 0 64 64" style="enable-background:new 0 0 64 64" xml:space="preserve">
  <path d="M6.1 18.4c-.2-.5 0-1.1.4-1.3.5-.2 1.1 0 1.3.4l1 2c.2.5 0 1.1-.4 1.3-.1.2-.2.2-.4.2-.4 0-.7-.2-.9-.6l-1-2zm6 2c.2.4.5.6.9.6.1 0 .3 0 .4-.1.5-.2.7-.8.4-1.3l-1-2c-.2-.5-.8-.7-1.3-.4-.5.2-.7.8-.4 1.3l1 1.9zM19 17c0-.6.4-1 1-1s1.1-.1 1.6-.4c.4-.2.8-.4 1.1-.8l.2-.2c.2-.2.4-.4.6-.5.1-.1.2-.1.3-.2.1-.1.3-.2.4-.3.1 0 .1-.1.2-.1.2-.1.4-.2.5-.3.2-.1.5-.2.8-.2.4-.1.9-.2 1.3-.2h2c.6 0 1 .4 1 1s-.4 1-1 1h-.5c.3.6.5 1.3.5 2 0 2.2-1.8 4-4 4-1.9 0-3.5-1.3-3.9-3.1-.4.3-.7.3-1.1.3-.6 0-1-.4-1-1zm8 0c0-.8-.5-1.5-1.2-1.8h-.1c-.2.1-.5.2-.7.3l-.1.1c-.2.1-.4.3-.6.5l-.2.2c-.2.2-.5.4-.7.6-.1 0-.1.1-.2.1s-.1.1-.2.1c.1 1 .9 1.8 2 1.8 1.1.1 2-.8 2-1.9zm37 33.9c0 .4-.2.8-.6 1-.1.1-.2.1-.4.1h-.4c-.1 0-.2-.1-.3-.2l-2.9-2.9-5.8-3.3-1.2 4.2c-1 3.8-3.4 7.1-6.7 9.3l-2.2 1.5c-.4.3-.8.5-1.2.7-.1.1-.3.1-.4.2-.3.2-.6.3-.9.4 0 0-.2.1-.3.1-.3.1-.6.2-1 .4-.1 0-.2.1-.4.1-.4.1-.9.3-1.3.3-.1 0-.2 0-.4.1-.3.1-.7.1-1 .2-.2 0-.3 0-.5.1-.3 0-.6.1-.9.1h-1.9c-.5 0-1-.1-1.4-.2-4.1-.7-8.1-2-11.8-3.8l-1.8-.9-3.3 4c-1 1.1-2.4 1.8-3.8 1.8H6c-.4 0-.8-.3-1-.7-.1-.4 0-.9.4-1.1 1.8-1.2 3.1-2.9 3.7-4.9l.7-2-2.3 1.6s-.1 0-.1.1c0 0-.1 0-.1.1h-.5c-.1 0-.1 0-.2-.1 0 0-.1 0-.1-.1h-.1l-.1-.1-.1-.1c-.1-.1-.1-.1-.1-.2v-.1c-.1-.4-.1-.5-.1-.6v-8c0-.2.1-.3.1-.5L5.4 46H3c-.4 0-.8-.2-.9-.6l-2-5c-.1-.3-.1-.7.2-1 .2-.3.6-.4 1-.3l8 2c.2 0 .3.1.4.2l.5.5 2.3-3.3-1-.5c-.1 0-.2-.1-.3-.2l-2-2-4-4c-.1-.1-.2-.2-.2-.4l-1-2.9-2-3.9c0-.1 0-.1-.1-.2L.7 20.3C.3 18.2 0 16.1 0 14c0-.5.3-.9.8-1l11-2c.9-.2 1.8-.3 2.8-.4.4 0 .7-.1 1.1-.1.6-.1 1.1-.1 1.7-.2.4 0 .9-.1 1.3-.1.5 0 1-.1 1.5-.1h5.6c.5 0 .9.1 1.4.1.5 0 .9.1 1.4.1.4 0 .9.1 1.3.1.5.1 1 .1 1.5.2.4.1.8.1 1.2.2.4.1.9.1 1.3.2l.6-.5c3.4-2.9 7.3-5.2 11.4-6.8l1.3-.7c5-2 10.4-3 15.8-3 .1 0 .2 0 .3.1h.1c.1 0 .1.1.2.1 0 0 .1 0 .1.1.1.1.1.1.1.2 0 0 0 .1.1.1 0 .1.1.2.1.3v.4c0 .1 0 .1-.1.2 0 0 0 .1-.1.1v.1L57.3 10c-2.8 3.6-4.9 7.7-6.2 12.1l2.7 7.1c.3 0 .6.1.8.2h.1c.3.1.5.2.8.4l.1.1c.2.2.5.3.7.5 0 0 0 .1.1.1.2.2.4.5.6.7l3.3 5.1c1.8 2.9 3 6.2 3.3 9.6l.4 5zM60.2 3l-3.9 1.3c-1.2.4-2.4.9-3.6 1.6l-4.8 2.6c-2.4 1.3-4.5 3.1-6.3 5.1 3.1 1.4 5.9 3.5 8 6.2 1.4-4 3.4-7.8 6.1-11.2L60.2 3zM46.5 5.5c-1 .4-1.9.8-2.8 1.3-.3.1-.6.3-.9.5-.6.3-1.2.6-1.8 1-.3.2-.7.4-1 .6-.5.3-1.1.7-1.6 1-.4.2-.7.5-1 .8l-1.2.9 3.6 1.2c2-2.5 4.4-4.6 7.3-6.1l4.8-2.6c.6-.4 1.3-.8 2.1-1.1-.2.1-.5.1-.7.2-.2.1-.4.1-.7.2-.3.1-.6.2-1 .3-.2.1-.4.1-.6.2-.3.1-.7.2-1 .3-.2.1-.3.1-.5.2L48 5l-1.5.5zM2.8 19.6l1 3.4h24l5-2.2c1.3-.6 2.9-.7 4.3-.3 1.6.4 3 1.4 3.9 2.8l2.5 3.7H49c.2 0 .3 0 .4.1l1.7.9-2.1-5.5c-2.5-3.6-6.1-6.4-10.3-7.8L33.8 13c-.2 0-.4-.1-.6-.1-.7-.1-1.4-.2-2-.3-.3 0-.6-.1-.9-.1-.6-.1-1.2-.1-1.8-.2-.4 0-.8-.1-1.2-.1-.5 0-1-.1-1.5-.1h-5.4c-.6 0-1.3.1-1.9.1-.3 0-.5 0-.8.1-.7.1-1.5.2-2.2.2-.2 0-.3 0-.5.1-.9.1-1.8.3-2.7.4L2 14.8c.1 1.6.3 3.3.8 4.8zm4.1 10.9 3.1 3.1 3.3-3.3c.4-.4 1-.4 1.4 0l3.3 3.3 3.3-3.3c.2-.2.5-.3.7-.3s.5.1.7.3l3.3 3.3 3.3-3.3c.3-.3.7-.4 1.1-.2l3.6 1.5v-4.1l-4.7 1.6c-.1-.1-.2-.1-.3-.1H6.4l.5 1.5zm5.7 5.7 1.6.8h15.4l3.6-3.6-3-1.2-3.5 3.5c-.2.2-.4.3-.7.3s-.5-.1-.7-.3L22 32.4l-3.3 3.3c-.4.4-1 .4-1.4 0L14 32.4 11.4 35l1.2 1.2zm8.9 9.2c-.6 1.3-1.4 2.4-2.5 3.4 3 1.2 6.3 1.4 9.4.7l-1.1-1.6-4.7-1.9-1.1-.6zM8 48.9v-.1c0-.1.1-.2.2-.3l.8-1 3.3-4.3 1.6-2.2-.2-.6L8 48.3v.6zm.7 4.7 8.1-5.6c1.3-.9 2.3-2.1 2.9-3.5l-4.4-2.2-1.9 2.5-2.8 3.8c-.4.6-.8 1.3-1 2l-.9 3zM6 44c.4 0 .7.2.9.6l.5 1.1L9 43.4l-.5-.4-5.9-1.5 1 2.6H6zm4.4 18 4.7-9.4c.2-.4.7-.7 1.2-.5 1.9.6 3.9 1.1 5.9 1.3l1.7.2c1.8.2 3.7-.2 5.2-1.1 1.3-.8 2.4-2 3.1-3.3l.2-.4-2.4-.4.7 1.1c.2.3.2.6.1.9s-.3.5-.6.6c-4.1 1.4-8.5 1.2-12.5-.5l-.6-.3-5.5 3.8.3.5c.1.2.1.5.1.8l-.9 2.6c-.5 1.5-1.3 2.9-2.4 4.1h1.7zM21 57.4c2.2 1.1 4.5 2 6.9 2.6H32c2.3.1 4.3-.9 6.5-2l.1-.1c.8-.4 1.6-.9 2.3-1.4 2.7-2 4.6-4.9 5.4-8.2l1.7-7.5c.1-.4.4-.7.9-.8.4 0 .8.2 1 .5l.8 1.6 2.6.9s.1 0 .1.1h.1l5 2.9c-.8-2.9-2.3-5.6-4.3-7.9-3-3.2-7.2-5.1-11.6-5.1H42c-.3 0-.6-.1-.8-.4-.2-.2-.2-.5-.2-.8l.9-3.6-2.5-3.8c-.6-1-1.6-1.7-2.8-2-1-.2-2.1-.2-3 .2l-5.2 2.2c-.1.2-.3.2-.4.2H4.6l1 2h23.2l5.8-1.9c.3-.1.6-.1.9.1.3.2.4.5.4.8V33.5s0 .1-.1.1c0 0 0 .1-.1.1l-5 5c-.2.2-.4.3-.7.3H15.4l.4 1.3 5.6 2.8 2 1 4.8 1.9 5.9 1c.3.1.6.2.7.5.1.3.1.6 0 .9L34 50c-.9 1.7-2.2 3.2-3.9 4.2-1.9 1.2-4.2 1.6-6.5 1.4l-1.6-.2c-1.9-.2-3.7-.6-5.5-1.2l-3.6 7.2c.2-.1.4-.3.5-.5l3.8-4.6c.3-.4.8-.5 1.2-.3l2.6 1.4zm29.5-8.2 1.2-4.6-2.1-.7c-.1 0-.2-.1-.3-.2l-1.2 5c-.9 3.7-3 7.1-6.1 9.4-.8.6-1.7 1.1-2.6 1.6l-.1.1c-.9.4-1.7.9-2.6 1.2.1 0 .3 0 .4-.1.2 0 .5-.1.7-.1.2-.1.4-.1.7-.2.3-.1.5-.2.8-.3.2-.1.4-.1.6-.2.3-.1.6-.3.9-.4.2-.1.3-.1.5-.2.4-.2.9-.5 1.3-.8l2.2-1.5c2.7-1.8 4.8-4.7 5.7-8zm11.2-.9-.2-2.3c-.3-3.1-1.3-6.1-3-8.7l-3.3-5.1c-.5-.7-1.3-1.2-2.2-1.2-.1 0-.3 0-.4-.1L48.8 29h-5l-.5 2c4.7.2 9.2 2.3 12.4 5.8 2.7 3 4.5 6.7 5.3 10.7l.7.8z"/>
</svg>
