<svg xmlns="http://www.w3.org/2000/svg" viewBox="0 0 64 37" style="enable-background:new 0 0 64 37" xml:space="preserve">
  <path d="M34.1 10.4c.2.4.5.6.9.6.1 0 .3 0 .4-.1.5-.2.7-.8.4-1.3l-1-2c-.2-.5-.8-.7-1.3-.4-.5.2-.7.8-.4 1.3l1 1.9zM28.6 10.9c.1.1.2.1.4.1.4 0 .7-.2.9-.6l1-2c.2-.5 0-1.1-.4-1.3-.5-.2-1.1 0-1.3.4l-1 2c-.3.5-.1 1.1.4 1.4z"/>
  <path d="m62.1 30.8-7.2-1.4 5.6-6.4H62c.4 0 .7-.2.9-.6l1-2v-.1c0-.1.1-.2.1-.2v-.5c0-.1-.1-.2-.1-.2l-.7-.9C59.3 13.4 54.5 9.2 49 5.9c-2.5-1.1-6-1.5-6-1.5S40.5 1.3 39.8 1h-1.7l-3.9-1h-4.4l-3.9 1h-1.5c-.9.5-3.4 3.3-3.4 3.3l-4.3.8-1.6.8C9.6 9.2 4.8 13.4.9 18.5l-.7.9c-.1.1-.1.2-.1.2-.1.2-.1.3-.1.4v.1c0 .1 0 .2.1.2v.1l1 2c.2.4.5.6.9.6h1.5l5.6 6.4-7.2 1.4C.8 31 0 32 0 33.1c0 .9.5 1.7 1.3 2.1C3.6 36.4 6.1 37 8.6 37H14c1.4 0 2.6-.7 3.4-1.9l6.4 1.8h15.3c.1 0 .2 0 .4-.1l6.9-2.6c.6 1.5 2 2.7 3.7 2.7h5.4c2.5 0 5-.6 7.3-1.7.8-.4 1.3-1.2 1.3-2.1-.1-1.1-.9-2.1-2-2.3zM53.4 28l-.5-1.6c-.7-2-2.6-3.4-4.7-3.4h-4.4l-1.2-3h.2c1 0 2.1.1 3.1.2h.6c1 .1 2 .2 3 .4.2 0 .4.1.5.1 1 .2 2 .3 3.1.5.1 0 .3.1.4.1 1.1.2 2.1.5 3.2.8l1.7.5-5 5.4zM46.6 7c4.9 2.7 9.2 6.2 12.8 10.3l-1.8-.8c-.6-.3-1.2-.5-1.8-.8-.2-.1-.4-.1-.6-.2-.4-.2-.8-.3-1.2-.5-.2-.1-.5-.2-.7-.2-.4-.1-.8-.2-1.2-.4-.3-.1-.5-.1-.8-.2-.4-.1-.7-.2-1.1-.3-.3-.1-.5-.1-.8-.2-.4-.1-.7-.1-1.1-.2-.3 0-.6-.1-.8-.1-.4-.1-.7-.1-1.1-.2-.3 0-.6-.1-.8-.1-.4 0-.7-.1-1.1-.1-.3 0-.6 0-.9-.1h-.4l.7-2.8v-.4l-.7-3.5 3.4.8zM42 17.2l.7-2.1h1.5c.3 0 .7.1 1 .1.3 0 .6.1.9.1.3 0 .7.1 1 .1.3 0 .6.1.8.1.3.1.7.1 1 .2.3.1.5.1.8.2.4.1.7.2 1.1.3.2.1.5.1.7.2.4.1.7.2 1.1.3.2.1.5.1.7.2.4.1.8.3 1.2.4.2.1.4.1.5.2.6.2 1.2.5 1.7.7l4.8 2.2-.1.6h-1.2l-3.2-.9c-.6-.2-1.3-.3-1.9-.5-.2-.1-.4-.1-.7-.1l-1.2-.3c-.3-.1-.5-.1-.8-.1-.4-.1-.8-.1-1.1-.2-.3 0-.6-.1-.8-.1-.4-.1-.7-.1-1.1-.2-.3 0-.6-.1-.9-.1-.4 0-.7-.1-1.1-.1-.3 0-.6-.1-.9-.1-.4 0-.7-.1-1.1-.1-.3 0-.6 0-.9-.1-.4 0-.7 0-1.1-.1h-1.5v-.8zm-.6-7.7.3-.3.3.8-.3 1.3-.2.7-1.6-1.6-.2-.4H40.5c.1 0 .2-.1.3-.1h.1c.2-.2.3-.2.5-.4 0 .1 0 .1 0 0zM35.3 19l.3-.2c.1 0 .1-.1.2-.1l2.4-2.4 1.9 1.2v1.1l-1.3 1.3-3.5-.9zm2 2.7-.9 1.4-4.4.9-4.4-.9-.9-1.4 3.4-.7h3.8l3.4.7zm-2.9-4.5L32 18.8l-2.4-1.6-1.5-1.5h.1c.2-.1.5-.2.7-.2.1 0 .1 0 .2-.1.3-.1.6-.3.8-.4.1 0 .1-.1.2-.1.2-.1.4-.3.6-.4l.2-.2c.3-.2.5-.4.7-.6l.2-.2.2.2c.2.2.5.4.7.6l.2.2c.2.2.4.3.6.4.1 0 .1.1.2.1.3.2.6.3.8.4.1 0 .1 0 .2.1.2.1.5.2.7.2h.1l-1.1 1.5zm-6.1 1.5s.1.1.2.1l.3.2-3.4.9-1.4-1.3v-1.1l1.9-1.2 2.4 2.4zm-4.1 2.9 1.9 2.9c.1.2.4.4.6.4l5 1h.4l5-1c.3-.1.5-.2.6-.4l1.9-2.9.9-.9 1.2 3-4.2 5.3h-11l-4.3-5.2 1.2-3 .8.8zM38.6 5.1l.3-.6c.1-.2.1-.3.1-.5V3h.5L41 5.2V6c0 .5-.1 1-.4 1.5-.1.3-.4.5-.7.5h-.2c-.2 0-.5-.1-.7-.2-.1-.1-.2-.1-.2-.2l-.4-1c-.1-.5-.1-1.1.2-1.5zM33 2h.9l3.1.8v1l-.2.4-.3.6-2-.7L33 2.6V2zm-6 .8 3.1-.8h.9v.6l-1.5 1.5-2 .7-.3-.6-.2-.4v-1zm-1.1 8.6 1-2c.1-.2.1-.4.1-.6v-.2c.2-.2.3-.5.4-.8.1-.2.1-.5.2-.7l.1-.3 2.6-.9c.1 0 .3-.1.4-.2L32 4.4l1.3 1.3c.1.1.2.2.4.2l2.6.9.1.3c0 .3.1.5.2.6.1.3.2.6.4.8v.3c0 .2 0 .4.1.6l1 2c0 .1.1.2.2.3l2.6 2.6-.4 1.2-1.9-1.3c-.1-.1-.2-.1-.3-.1h-.2c-1.7 0-3.2-.6-4.4-1.8l-.9-.9c-.4-.4-1-.4-1.4 0l-.9.9C29.2 13.4 27.7 14 26 14h-.2c-.1 0-.2.1-.3.1l-1.9 1.3-.4-1.2 2.6-2.6s0-.1.1-.2zm-2.8-6.2L24.5 3h.5v1c0 .2 0 .3.1.4l.3.6c.2.5.3 1 .3 1.6l-.1.2-.3.8-.2.2c-.3.1-.5.2-.7.2h-.2c-.3 0-.6-.2-.8-.5-.3-.5-.4-1-.4-1.5v-.1c0-.3 0-.5.1-.7zm-.9 4.1c.2.1.3.2.4.3.1.1.3.2.4.2h.1c.1 0 .2.1.3.1h.8l-.2.4-1.5 1.7-.2-.7L22 10l.2-.7zM17.4 7l3.4-.7-.8 3.5v.4l.7 2.8h-.4c-.3 0-.6 0-.9.1-.4 0-.7.1-1.1.1-.3 0-.6.1-.8.1-.4 0-.7.1-1.1.2-.3 0-.6.1-.8.1-.4.1-.7.1-1.1.2-.3.1-.5.1-.8.2-.4.1-.7.2-1.1.3-.3.1-.5.1-.8.2-.4.1-.8.2-1.2.4-.2.1-.5.1-.7.2-.4.1-.8.3-1.2.5-.2.1-.4.1-.6.2-.6.2-1.2.5-1.8.8l-1.8.8c3.7-4.3 8-7.7 12.9-10.4zM2.6 21l-.3-.5 4.8-2.2c.6-.3 1.1-.5 1.7-.7.2-.1.4-.1.5-.2.4-.2.8-.3 1.2-.4.2-.1.5-.1.7-.2.4-.1.7-.2 1.1-.3.2-.1.5-.1.7-.2.4-.1.7-.2 1.1-.3.3-.1.5-.1.8-.2.3-.1.7-.1 1-.2.3 0 .6-.1.8-.1.3 0 .7-.1 1-.1.3 0 .6-.1.9-.1.3 0 .7-.1 1-.1h1.5l.7 2.1v.7h-1.5c-.4 0-.7 0-1.1.1-.3 0-.6 0-.9.1-.4 0-.7.1-1.1.1-.3 0-.6.1-.9.1-.4 0-.7.1-1.1.1-.3 0-.6.1-.9.1-.4.1-.7.1-1.1.2-.3 0-.6.1-.8.1-.4.1-.8.1-1.1.2-.3.1-.5.1-.8.1l-1.2.3c-.2.1-.4.1-.7.1-.3.2-1 .4-1.6.5l-3.1.9H2.6zm3.2 1.5 1.7-.5c1.1-.3 2.1-.5 3.2-.8.1 0 .3-.1.4-.1 1-.2 2-.4 3.1-.5.2 0 .4-.1.5-.1 1-.1 2-.3 3-.4h.6c1-.1 2-.1 3.1-.2h.2l-1.2 3H16c-2.2 0-4.1 1.4-4.7 3.4l-.7 1.7-4.8-5.5zm11.9 6.6c-.1 0-.1 0 0 0-.2.1-.2.1-.3.1l-.1.1-.1.1s0 .1-.1.1l-.1.1-1 3c0 .1-.1.2-.1.3 0 1.1-.9 2-2 2H8.6c-2.2 0-4.4-.5-6.4-1.5-.1 0-.2-.1-.2-.3 0-.2.1-.3.3-.4l8.9-1.8c.4-.1.6-.3.8-.7l1.1-3.3c.4-1.2 1.6-2.1 2.8-2.1h4.6l3.3 4H18c-.1.2-.2.2-.3.3zM38.8 35H24.1l-5.9-1.7.6-2.3h26.5l.5 1.4-7 2.6zm23-1.5c-2 1-4.2 1.5-6.4 1.5H50c-1.1 0-2-.9-2-2 0-.1 0-.2-.1-.3l-1-3c-.1-.4-.5-.7-.9-.7h-5.9l3.3-4H48c1.3 0 2.4.8 2.8 2.1l1.1 3.3c.1.3.4.6.8.7l8.9 1.8c.2 0 .3.2.3.4.1 0 0 .1-.1.2z"/>
</svg>
