<svg xmlns="http://www.w3.org/2000/svg" viewBox="0 0 64.2 64" style="enable-background:new 0 0 64.2 64" xml:space="preserve">
  <path d="m56.4 12.8-.1-.1c-2.6-1.2-5.5-1.5-8.4-1l-2.2.4c-5.9 1.2-11.3 4.3-15.3 8.8-1.3 1.4-2.7 2.5-4.5 3.3l-6 2.7c-1.1.5-2.4.4-3.4-.2-1.1-.7-1.8-1.9-1.8-3.1 0-.3 0-.6.1-.8l1.9-8.1c.1-.6.7-1.2 1.3-1.3l3.3-.8c2.2-.5 4.2-1.8 5.5-3.6 1.5-1.8 2.3-4.1 2.3-6.4V1c0-.4-.2-.8-.6-.9-.4-.2-.8-.1-1.1.2l-2.8 2.8c-.6.6-1.4.9-2.2.9h-3.3c-1.6 0-3.1.8-4 2-.1-.2-.3-.4-.5-.5-1-.9-2.2-1.5-3.5-1.5H6.8c-.8 0-1.6-.3-2.2-.9L1.8.3C1.5 0 1.1-.1.8.1.4.2.1.6.1.9l-.1 2c-.1 2 .4 3.9 1.4 5.5l.1.1c1.4 2.3 3.7 3.9 6.2 4.5h.1c.6.1 1.1.5 1.3 1.1.2.6.1 1.2-.2 1.7l-6.4 8.7C1 26.6.1 29.1.1 31.7v.1c0 4.8 2.7 9.2 7 11.3l4.1 2c1.2.6 2.3 1.1 2.9 1.4-.1 1.6-.4 3.2-.9 4.8-.6 1.9-1.5 3.6-2.7 5.2-.8 1.1-1.2 2.3-1.2 3.6 0 1.2.4 2.4 1 3.4.2.2.4.4.7.4h.1c.2 0 .5-.1.7-.3L17 59c2.6-2.4 4.6-5.4 5.7-8.7l.9-2.8c1 .1 2.1.1 3.1.1 1.5 0 2.9-.1 4.4-.2l5-.5v1.5c-1.2 1.5-1.1 3.7.3 5.1l.3.3c.6.6 1.3 1 2.2 1.2 5.6 1.1 10.8 4.1 14.5 8.5.2.2.5.3.8.3h.2c.4-.1.7-.4.7-.7.7-2.8.2-5.8-1.3-8.3-1.9-3.1-4.8-5.6-8.1-7l-2.7-1 8.1-1.1c1-.1 2-.4 2.9-.7h.1c.3 0 .6-.1.8-.4.4-.2.9-.4 1.3-.6.5-.3.8-.5 1.2-.8l1.5-1.2 1.4-1.4c.2-.3.4-.5.6-.8.1-.1.1-.2.2-.3.1-.2.3-.4.4-.6.1-.1.1-.2.2-.3l.3-.6c.1-.1.1-.2.2-.4s.2-.4.2-.6c0-.1.1-.2.1-.4.1-.2.1-.4.2-.6 0-.1.1-.2.1-.4.1-.2.1-.4.1-.6 0-.1 0-.2.1-.3 0-.3.1-.5.1-.8v-.2c.5 0 1-.4 1-1l.1-7.8c.1-5-3-9.9-7.8-12.1zM8 41.3c-3.6-1.8-5.9-5.5-5.9-9.5v-.1c0-2.1.7-4.3 2-6l6.4-8.7c.8-1 .9-2.4.5-3.6-.5-1.2-1.5-2.1-2.7-2.3h-.1c-2.1-.4-3.9-1.7-4.9-3.5l-.1-.1C2.4 6.2 2 4.7 2 3.3l1.2 1.2c.5.5 1.2.9 1.9 1.2V7c0 .6.4 1 1 1s1-.4 1-1V6h2v1c0 .6.4 1 1 1s1-.4 1-1V6c.8 0 1.6.3 2.1.9.6.6.9 1.3.9 2.1 0 .6.4 1 1 1s1-.4 1-1c0-1.7 1.3-3 3-3v1c0 .6.4 1 1 1s1-.4 1-1V6h1.3c.2 0 .4 0 .7-.1V7c0 .6.4 1 1 1s1-.4 1-1V5.2c.3-.2.6-.4.9-.7l1.1-1.1c-.1 1.6-.8 3.2-1.8 4.5-1.1 1.4-2.7 2.4-4.5 2.9l-3.3.8c-1.4.3-2.5 1.4-2.8 2.8l-1.9 8.1c-.1.4-.1.8-.1 1.3 0 2 1.1 3.8 2.7 4.8s3.6 1.1 5.3.3l6-2.7c2-.9 3.7-2.2 5.1-3.8 3.7-4.2 8.8-7.1 14.2-8.2l2.2-.4c2.4-.5 4.9-.2 7.1.8l.1.1c4.1 1.9 6.7 6 6.7 10.5l-.1 6.6c-2.1-1.6-4.8-2-7.3-1l-4.1 1.6c-1.1.4-2.4.6-3.5.4-.2 0-.5-.1-.7-.1-2.3 0-4.1 1.7-4.4 4l-.5.5c-2 2-4.5 3.4-7.2 4.1L26.9 43l-1.8.3 2-2.4c.5-.5.7-1.2.7-1.9 0-1.7-1.3-3-3-3-.7 0-1.4.3-2 .8L21.7 38h-1.5c-1.6 0-3.2.6-4.3 1.8s-1.8 2.7-1.8 4.3v.3c-.6-.3-1.3-.6-2-1L8 41.3zm7.6 16.4-4.2 3.7c-.1-.4-.2-.8-.2-1.2 0-.9.3-1.7.8-2.5.2-.2.3-.5.5-.7H14c.6 0 1-.4 1-1s-.4-1-1-1h-.3c.3-.6.6-1.3.9-2H16c.6 0 1-.4 1-1s-.4-1-1-1h-.8c.2-.7.3-1.3.5-2H17c.6 0 1-.4 1-1s-.4-1-1-1h-1c0-.3 0-.6.1-.9v-2c0-1.1.4-2.1 1.2-2.9s1.8-1.2 2.9-1.2h1.9c.3 0 .5-.1.7-.3l1.5-1.5c.1-.1.3-.2.5-.2.6 0 1 .5 1 1 0 .2-.1.4-.2.6l-2.3 2.7c-.1.1-.1.2-.2.3l-1.2 3.6-1.2 3.5c-.9 3.1-2.7 5.8-5.1 8zm15.3-12.1c-2.2.2-4.4.3-6.7.1l.1-.3 3-.5 7.6-1.9c3.1-.8 5.9-2.3 8.1-4.6l.8-.8c.2-.2.3-.4.3-.7 0-1.3 1.1-2.4 2.4-2.4h.4c.4.1.9.1 1.4.1 1.1 0 2.1-.2 3.1-.6l4.1-1.7c1.9-.8 4-.4 5.5.9v.7c0 .2 0 .3-.1.5 0 .1 0 .2-.1.4 0 .2-.1.3-.1.5 0 .1 0 .2-.1.2a8.8 8.8 0 0 0-7.9-.5c-.1 0-.2.1-.3.1-.1 0-.2.1-.3.1-.9.5-2 .7-3.1.7h-2.1c-.4 0-.7.2-.9.6 0 0-.9 1.9-2.8 3.7-1.9 1.9-7.7 4.8-7.7 4.8l-4.6.6zm14.4-1.2L41 45h-1c1.8-1 3.7-2.3 4.8-3.3 1.5-1.5 2.4-2.9 2.9-3.7h1.6c.9 0 1.8-.1 2.6-.4-.2.8-.6 1.9-1.5 2.7-1.9 1.9-4.8 3.9-4.8 3.9-.1 0-.2.1-.3.2zm8.3-1.4c-.9.3-1.7.5-2.7.7l-1.6.2c.8-.6 1.7-1.4 2.5-2.2 1.7-1.7 2.1-3.9 2.2-5 1-.3 2-.4 3-.3-.1.4-.3 1.1-.8 2.2-.7 1.4-2 3.5-2.6 4.4zm-1.5 13c.9 1.4 1.3 3.1 1.3 4.7-.7-.7-1.5-1.4-2.3-2V57c0-.6-.4-1-1-1s-1 .4-1 1v.3c-1-.6-2-1.2-3-1.7V54c0-.6-.4-1-1-1s-1 .4-1 1v.7c-1-.4-2-.7-3-1V52c0-.6-.4-1-1-1s-1 .4-1 1v1.2c-.4-.1-.7-.3-1-.6l-.3-.3c-.7-.7-.7-1.9 0-2.6.2-.2.3-.4.3-.7v-2h2c0 .4.2.8.6.9l4.1 1.8c3 1.4 5.5 3.6 7.3 6.3zM58 40.2l-.7.6c.3-.5.5-.9.7-1.3.6-1.1.8-2 1-2.5.4.2.7.3 1.1.6 0 .1-.1.1-.1.2-.1.1-.1.2-.2.3-.1.2-.2.3-.3.4-.1.1-.1.2-.2.2-.2.2-.3.4-.5.7l-.8.8zm-22.8-.5c.2.2.5.3.7.3s.5-.1.7-.3l4.1-4.1c.4-.4.4-1 0-1.4l-2.1-2.1c-1.5-1.5-4-1.5-5.5 0s-1.5 4 0 5.5l2.1 2.1zm-.6-6.2c.4-.4.9-.6 1.3-.6s1 .2 1.3.6l1.3 1.3-2.7 2.7-1.3-1.3c-.6-.8-.6-2 .1-2.7zM49.1 11v-1c0-1.1-.9-2-2-2-.6 0-1 .4-1 1s.4 1 1 1h.2c.5 0 1 .2 1.4.6l.4.4zm2.4-.4c.4-.4.9-.6 1.4-.6h.2c.6 0 1-.4 1-1s-.4-1-1-1c-1.1 0-2 .9-2 2v1l.4-.4zM49.1 7V6c0-1.1-.9-2-2-2-.6 0-1 .4-1 1s.4 1 1 1h.2c.5 0 1 .2 1.4.6l.4.4zm2.4-.4c.4-.4.9-.6 1.4-.6h.2c.6 0 1-.4 1-1s-.4-1-1-1c-1.1 0-2 .9-2 2v1l.4-.4zM49.1 3V2c0-1.1-.9-2-2-2-.6 0-1 .4-1 1s.4 1 1 1h.2c.5 0 1 .2 1.4.6l.4.4zm2.4-.4c.4-.4.9-.6 1.4-.6h.2c.6 0 1-.4 1-1s-.4-1-1-1c-1.1 0-2 .9-2 2v1l.4-.4z"/>
</svg>
