<svg xmlns="http://www.w3.org/2000/svg" viewBox="0 0 64 64" style="enable-background:new 0 0 64 64" xml:space="preserve">
  <path d="M64 56.9 61.2 37c-.7-5.3-4.4-9.8-9.5-11.5-.5-4.1-3.3-7.5-7-8.8l2.7-2.7H49c.4 0 .7-.2.9-.5s.2-.7 0-1l-1.5-2.3c-.5-.7-1.2-1.2-2.1-1.3l-5.5-.8-.3-1.8C40.1 3.8 38 2 35.5 2h-6.4l-7.9-2c-.4-.1-.7 0-1 .3s-.3.6-.2 1l.5 1.4-3.3-.7c-.4-.1-.9.1-1.1.5s-.1.9.2 1.2l4.4 4.4c.6.6 1.3.9 2.1.9h.1l-.6 5.7c-.1.5 0 .9.2 1.4-2.5.1-4.9 1.1-6.8 2.8-1.9 1.7-3.1 4.1-3.5 6.6-5 1.7-8.7 6.2-9.5 11.5L0 56.9c-.1.4.1.7.4.9.2.1.4.2.6.2.2 0 .3 0 .4-.1 1.4-.7 2.6-1.7 3.6-2.8 1-1.2 1.8-2.5 2.2-4l2.8-8.9c.1-.4.3-.7.6-1L9.2 56.7c-.1.9.2 1.7.8 2.3.2.2.4.4.7.6l-3.3 2.6c-.4.3-.5.8-.3 1.2.1.4.5.6.9.6h.2l5.8-1 2.8.9c.2.1.4.1.6 0l2.8-.9 6.8 1c.4.1.9-.2 1.1-.6.2-.4.1-.9-.3-1.2l-3.7-3c.2-.2.5-.4.6-.7l6.9 4.3c.2.1.3.2.5.2s.4-.1.5-.2l6.9-4.3c.1.2.3.4.5.6l.2.2-3.7 3c-.4.3-.5.8-.3 1.2.2.4.6.7 1.1.6l6.8-1 2.8.9c.2.1.4.1.6 0l2.8-.9 5.8 1h.2c.4 0 .8-.2.9-.6.2-.4.1-.9-.3-1.2l-3.3-2.6c.3-.2.5-.3.7-.6.6-.6.8-1.5.8-2.3l-1.5-15.6c.2.3.5.7.6 1l2.8 8.9c.5 1.5 1.2 2.8 2.2 4 1 1.2 2.2 2.1 3.6 2.8-.1.1 0 .1.2.1s.4-.1.6-.2c.3-.2.4-.6.4-.9zM46.7 11.3l.5.7H41c-.6 0-1 .4-1 1s.4 1 1 1h3.6l-1.7 1.7c-.2.2-.4.3-.7.3h-3.5l-1.5-4.5 3-1.5 5.8.8c.3.1.5.3.7.5zM29 9h2.2c0 .1 0 .2-.1.3v.2c-.1.1-.1.3-.1.5 0 1.7 1.3 3 3 3 .2 0 .5 0 .7-.1.1 0 .1 0 .2-.1.2-.1.3-.1.5-.2h.1l1.1 3.4H29V9zm5 2c-.6 0-1-.4-1-1 0-.3.1-.5.3-.7.2-.2.4-.3.7-.3s.5.1.7.3c.2.2.3.4.3.7s-.1.5-.3.7c-.2.2-.4.3-.7.3zm4.5-4.4.3 1.9-1.8.9v-.1c0-.2-.1-.3-.1-.4 0-.1 0-.1-.1-.2s-.1-.2-.2-.3l-.1-.1c-.1-.1-.2-.3-.3-.4-.1-.1-.2-.1-.2-.2-.1-.2-.2-.4-.3-.5L31.8 4h3.8c1.4 0 2.7 1.1 2.9 2.6zm-16.4.1L20 4.6l1.8.4c.3.1.7-.1.9-.3.2-.3.3-.6.2-1l-.4-1.3 6 1.5L32.2 7H22.8c-.2 0-.5-.1-.7-.3zM27 9v7h-1.8c-.3 0-.6-.1-.7-.3-.2-.2-.3-.5-.2-.8l.6-5.9H27zM17 20.3c1.6-1.5 3.8-2.3 6-2.3h18c4.6 0 8.4 3.5 8.9 8.1l2.9 30.8c0 .3-.1.6-.3.8-.2.2-.5.3-.7.3H51v-7.8c0-3.5-.9-7-2.6-10.1-.8-1.4-1.4-2.9-1.8-4.4-.4-1.7-.6-3.3-.6-4.9v-1.4c0-3.9-3.2-7.1-7.1-7.1-.8 0-1.5.1-2.3.4-.5.2-1 .3-1.6.3h-6c-.5 0-1.1-.1-1.6-.3-2.2-.7-4.5-.4-6.4 1-1.9 1.4-3 3.5-3 5.8v1.4c0 1.6-.2 3.2-.6 4.7-.4 1.4-.9 2.7-1.5 4-.1.2-.2.3-.2.5-.1.1-.1.3-.2.4-1.6 3-2.4 6.4-2.4 9.7V58h-.8c-.3 0-.5-.1-.7-.3-.2-.2-.3-.5-.3-.8l2.9-30.6V26c.2-2.2 1.2-4.2 2.8-5.7zM8.2 41.6l-2.8 8.9c-.4 1.2-1 2.3-1.9 3.3-.4.5-.8.9-1.3 1.2l2.4-17.7c.6-4.3 3.4-7.9 7.2-9.6l-1 10.7c-1.2.6-2.2 1.8-2.6 3.2zM20.1 61h-.5l-2.6.9-2.7-.9h-.5l-2.2.4 1.7-1.4H21.6l1.9 1.5-3.4-.5zm11.9-.2-7-4.4V55c0-.6-.4-1-1-1s-1 .4-1 1v2c0 .6-.4 1-1 1h-7v-7.8c0-1.6.2-3.2.6-4.7.4-1.4.9-2.7 1.5-4 .1-.2.2-.3.2-.5.1-.1.1-.3.2-.4 1.6-3 2.4-6.3 2.4-9.7v-1.4c0-1.7.8-3.2 2.1-4.2 1.4-1 3-1.2 4.6-.7.7.2 1.5.4 2.2.4h6c.8 0 1.5-.1 2.2-.4.5-.2 1.1-.3 1.6-.3 2.8 0 5.1 2.3 5.1 5.1v1.4c0 3.5.9 7 2.6 10.1.8 1.4 1.4 2.9 1.8 4.4.4 1.6.6 3.2.6 4.7v8h-7c-.3 0-.5-.1-.7-.3.1-.2 0-.4 0-.7v-2c0-.6-.4-1-1-1s-1 .4-1 1v1.4l-7 4.4zm18.2.2h-.5l-2.7.9-2.7-.9h-.4l-3.4.5 1.9-1.5h8.2l1.7 1.4-2.1-.4zm10.3-7.2c-.8-1-1.5-2.1-1.9-3.3l-2.8-8.8c-.4-1.4-1.4-2.6-2.7-3.2l-1-10.7c3.9 1.7 6.7 5.3 7.2 9.6L61.7 55c-.4-.4-.9-.8-1.2-1.2z"/>
</svg>
