<svg xmlns="http://www.w3.org/2000/svg" viewBox="0 0 64 64" style="enable-background:new 0 0 64 64" xml:space="preserve">
  <path d="M27 26c2.2 0 4-1.8 4-4s-1.8-4-4-4-4 1.8-4 4 1.8 4 4 4zm0-6c1.1 0 2 .9 2 2s-.9 2-2 2-2-.9-2-2 .9-2 2-2zm10 6c2.2 0 4-1.8 4-4s-1.8-4-4-4-4 1.8-4 4 1.8 4 4 4zm0-6c1.1 0 2 .9 2 2s-.9 2-2 2-2-.9-2-2 .9-2 2-2zm26 25h-2.9c-1.6 0-3.2.6-4.3 1.8S54 49.5 54 51.1v.1l-2.7-1.6 1.5-1.6c2-2.2 2.1-5.7.2-8l-.8-1H56c4.4 0 8-3.6 8-8 0-4.3-3.5-7.9-7.8-8l1.2-5.9c.4-2.2-.5-4.4-2.4-5.6l-9.7-5.9.6-1.2c.2-.3.1-.7 0-1S45.3 3 45 3h-7.1l1-1.4c.2-.3.2-.7 0-1S38.4 0 38 0H27c-.2 0-.4.1-.5.2L9.6 10.8 9 8.2c0-2.4-1-4.6-2.7-6.3l-1-1C4.1-.3 2.1-.3.9.9.3 1.5 0 2.3 0 3.1c0 .9.3 1.6.9 2.2C2.2 6.7 3 8.5 3 10.4v6.4c0 2.5.8 4.8 2.3 6.7C2.2 24.6 0 27.6 0 31c0 4.4 3.6 8 8 8h3.9l-.8 1c-1.9 2.3-1.9 5.8.2 8l1.5 1.6-2.8 1.6v-.1c0-1.6-.6-3.2-1.8-4.3S5.5 45 3.9 45H1c-.6 0-1 .4-1 1v17c0 .6.4 1 1 1h12c.3 0 .6-.2.8-.4l1.6-2.4 2.3.8h.3c.9 1.2 2.3 2 4 2 1.6 0 3.1-.8 4-2h12c.9 1.2 2.3 2 4 2 1.6 0 3.1-.8 4-2h.3l2.3-.8 1.6 2.4c.2.3.5.4.8.4h12c.6 0 1-.4 1-1V46c0-.6-.4-1-1-1zm-11.7 1.6-6 6.7c-.1.1-.1.1-.1.2l-.1.1c0 .1-.1.2-.1.4v2.6l-.3-.3c-.4-.4-1-.4-1.4 0L42 57.6l-1.3-1.3c-.2-.2-.4-.3-.7-.3s-.5.1-.7.3l-.3.3v-2.5c0-1.1.4-2.2 1.1-3.1l2.3-2.9c2.7-.8 4.9-2.6 6.2-5.1l.1-.2 1.5-2.9 1.2 1.4c1.3 1.5 1.3 3.8-.1 5.3zM22.1 14.8c.1 0 .2-.1.3-.1.2-.1.5-.2.7-.2.1 0 .3-.1.4-.1.2 0 .5-.1.7-.1h1.5c.3 0 .7.1 1 .2h.1c.3.1.7.2 1 .4.1 0 .1.1.2.1.3.2.6.3.9.5l.1.1c.3.2.6.5.9.7l1.4 1.4c.2.2.5.3.8.3.3 0 .5-.1.7-.4l.6-.7c2.2-2.7 6-3.4 9.1-1.6l.2.1c3 1.7 4.3 5.3 3.1 8.6l-1.4 3.9L32.2 26H31.9l-12.2 1.9-1.5-4.1c-1.1-3.1.1-6.7 2.9-8.4.3-.3.6-.4 1-.6zM56 29c1.1 0 2 .9 2 2s-.9 2-2 2h-4v-4h4zm-19.4 4.4c.1.5-.2 1-.7 1.2l-2.9 1v-1.9l3.3-1.3.3 1zM32 31.9l-3-1.2 3-2.4 3 2.4-3 1.2zm-4.6 1.5.3-1.1 3.3 1.3v1.9l-2.9-1c-.5 0-.8-.6-.7-1.1zm21.1 3.9L33 40.8v-3l3.6-1.2c1.5-.5 2.3-2.1 2-3.6l-.6-2.2c0-.1-.1-.2-.2-.3l-.1-.1-2.1-1.7 8.8 1.4 3.7 6.6.4.6zm-28.9-7.4 8.8-1.4-2.1 1.7c-.1 0-.1.1-.1.1-.1.1-.1.2-.2.3l-.5 2.4c-.4 1.5.5 3.1 2 3.6l3.6 1.2v3l-15.5-3.4.5-.8 3.5-6.7zM12 33H8c-1.1 0-2-.9-2-2s.9-2 2-2h4v4zm19.8 10h.4l15.9-3.5-1.2 2.4c-1 2.1-2.9 3.6-5.2 4.2-6.4 1.9-13.1 1.9-19.4 0-2.3-.6-4.2-2.1-5.2-4.2l-1.2-2.4L31.8 43zM62 31c0 3.3-2.7 6-6 6h-4v-2h4c2.2 0 4-1.8 4-4s-1.8-4-4-4h-3.8c.4-1.2 1.5-2 2.8-2h1c3.3 0 6 2.7 6 6zM27.3 2h8.8l-1 1.4c-.2.3-.2.7 0 1s.5.6.9.6h7.4l-.3.6c-.2.5-.1 1 .4 1.3l10.4 6.4c1.2.7 1.8 2.1 1.5 3.5l-1.3 6.3H54c-.1 0-.2.1-.3.1-.2.1-.4.1-.6.2-.1 0-.2.1-.3.2-.2.1-.3.2-.5.3-.1.1-.2.1-.3.2-.1.1-.3.2-.4.3l-.3.3c-.1.1-.2.3-.3.4-.1.1-.2.2-.2.3-.1.2-.2.3-.3.5-.1.1-.1.2-.2.3-.1.2-.1.4-.2.6 0 .1-.1.2-.1.3v8.8l-3.9-7 1.5-4.2c.4-1 .6-2.1.6-3.2 0-2.9-1.4-5.7-3.8-7.4-.2-.2-.5-.3-.7-.4l-.2-.1A9.17 9.17 0 0 0 32 15.5l-.6-.6c-3-3-7.7-3.6-11.4-1.2-3.6 2.3-5.1 6.8-3.7 10.8l1.6 4.4-3.9 7V28c0-.3 0-.6-.1-1 0-.1-.1-.2-.1-.3-.1-.2-.1-.4-.2-.6 0-.1-.1-.2-.2-.3-.1-.2-.2-.3-.3-.5-.1-.1-.1-.2-.2-.3-.1-.1-.2-.3-.3-.4l-.3-.3c-.1-.1-.3-.2-.4-.3-.1-.1-.2-.2-.3-.2-.2-.1-.3-.2-.5-.3-.1-.1-.2-.1-.3-.2-.2-.1-.4-.1-.6-.2-.1 0-.2-.1-.3-.1h-.1l-1.3-6.7c0-.1 0-.3-.1-.4V15c0-.1 0-.1.1-.2 0-.1 0-.2.1-.2 0-.1.1-.1.1-.2s.1-.1.1-.2.1-.1.1-.2.1-.1.1-.2.1-.1.1-.2l.2-.2.1-.1.2-.2L27.3 2zm-25 1.9c-.2-.2-.3-.5-.3-.8 0-.3.1-.6.3-.8.4-.4 1.2-.4 1.6 0l1 1C6.2 4.7 7 6.5 7 8.4v.2l.9 3.4c0 .1-.1.1-.1.2-.1.1-.2.2-.3.4-.1.1-.1.1-.1.2-.1.1-.1.2-.2.4 0 .1-.1.2-.1.3-.1.1-.1.2-.2.4 0 .1-.1.2-.1.3 0 .1-.1.3-.1.4 0 .1 0 .2-.1.3 0 .1 0 .3-.1.4v1c0 .2 0 .5.1.7l1.2 6h-.4C5.9 21.3 5 19.1 5 16.8v-6.4c0-2.5-.9-4.8-2.7-6.5zM2 31c0-3.3 2.7-6 6-6h1c1.3 0 2.4.8 2.8 2H8c-2.2 0-4 1.8-4 4s1.8 4 4 4h4v2H8c-3.3 0-6-2.7-6-6zm10.6 10.2 1.2-1.4 1.5 2.9.1.2c1.2 2.5 3.5 4.4 6.2 5.1l2.3 2.9c.7.9 1.1 2 1.1 3.1v2.5l-.3-.3c-.4-.4-1-.4-1.4 0L22 57.6l-1.3-1.3c-.2-.2-.4-.3-.7-.3s-.5.1-.7.3l-.3.3V54c0-.1 0-.3-.1-.4 0 0 0-.1-.1-.1 0-.1-.1-.1-.1-.2l-6-6.7c-1.4-1.5-1.4-3.8-.1-5.4zM2 52.2h.1c.1 0 .1 0 .2.1s.2.1.3.2l.1.1.3.3.1.1c.1.1.2.3.3.4l.1.1c.1.1.1.2.2.3 0 .1 0 .1.1.2 0 .1.1.2.1.4v.2c.1 0 .1.2.1.4v7H2v-9.8zM6 62v-7c0-.3 0-.6-.1-1 0-.1-.1-.2-.1-.3-.1-.2-.1-.4-.2-.6 0-.1-.1-.2-.1-.3-.1-.2-.2-.3-.3-.5 0-.1-.1-.2-.2-.3-.1-.1-.2-.3-.3-.4l-.3-.3c-.1-.1-.3-.2-.4-.3-.1-.1-.2-.1-.3-.2-.2-.1-.3-.2-.5-.3-.1 0-.2-.1-.3-.1-.3-.1-.5-.2-.8-.3H2V47h1.9c1.1 0 2.1.4 2.9 1.2C7.6 49 8 50 8 51.1v2.2c0 .1.1.3.2.4L9.6 55l-1.3 1.3c-.4.4-.4 1 0 1.4L9.6 59l-1.3 1.3c-.4.4-.4 1 0 1.4l.3.3H6zm11-2.4-1.7-.6c-.4-.1-.9 0-1.1.4L12.5 62h-1.1l-1-1 1.3-1.3c.4-.4.4-1 0-1.4L10.4 57l1.3-1.3c.4-.4.4-1 0-1.4l-1.1-1.1 3.2-1.9 3.2 3.2v5.1zm5 2.4c-1.5 0-2.8-1.1-3-2.6l1-1 1.3 1.3c.4.4 1 .4 1.4 0l1.3-1.3 1 1c-.2 1.5-1.5 2.6-3 2.6zm15-2H27v-5.9c0-1.6-.5-3.1-1.5-4.4l-.7-.9c2.4.5 4.8.7 7.2.7 2.4 0 4.8-.3 7.2-.7l-.7.9c-1 1.2-1.5 2.8-1.5 4.4V60zm5 2c-1.5 0-2.8-1.1-3-2.6l1-1 1.3 1.3c.4.4 1 .4 1.4 0l1.3-1.3 1 1c-.2 1.5-1.5 2.6-3 2.6zm10.6 0h-1.1l-1.7-2.6c-.3-.4-.7-.5-1.1-.4l-1.7.6V54.4l3.2-3.2 3.2 1.9-1.1 1.1c-.4.4-.4 1 0 1.4l1.3 1.3-1.3 1.3c-.4.4-.4 1 0 1.4l1.3 1.3-1 1.1zm3.1-1.7L54.4 59l1.3-1.3c.4-.4.4-1 0-1.4L54.4 55l1.3-1.3c.1-.1.2-.2.2-.4v-2.2c0-1.1.4-2.1 1.2-2.9.9-.8 1.9-1.2 3-1.2H62v3.1h-.1c-.3.1-.6.1-.8.3-.1 0-.2.1-.3.1-.2.1-.4.2-.5.3-.1.1-.2.1-.3.2-.1.1-.3.2-.4.4l-.3.3c-.1.1-.2.3-.3.4-.1.1-.1.2-.2.3-.1.2-.2.3-.3.5-.1.1-.1.2-.1.3-.1.2-.1.4-.2.6 0 .1-.1.2-.1.3-.1.3-.1.6-.1.9v7h-2.6l.3-.3c.4-.4.4-1 0-1.4zM60 62v-7c0-.2 0-.4.1-.6v-.2c0-.1.1-.2.1-.4 0-.1 0-.1.1-.2s.1-.2.2-.3c0 0 0-.1.1-.1.1-.1.2-.3.3-.4l.1-.1.3-.3.1-.1c.1-.1.2-.1.3-.2.1 0 .1 0 .2-.1h.1v10h-2z"/>
</svg>
