<svg xmlns="http://www.w3.org/2000/svg" viewBox="0 0 64 64" style="enable-background:new 0 0 64 64" xml:space="preserve">
  <path d="m63.1 27.9-.1-.1c-.1-2.7-1.7-5.2-4.3-6.3l-2.5-1.1c.1-.5.2-1 .2-1.5 0-1.5-.4-2.9-1.2-4.1-1.6-2.4-3.9-4.1-6.6-5C42.9 7.9 37.2 7 31.4 7h-3.9c-1.9-2.1-4.3-3.9-6.9-5.1C17.8.7 14.8 0 11.8 0h-1C9.6 0 8.5.7 8.1 1.9c-.5 1.1-.3 2.3.6 3.2l2.5 2.5c1.3 1.3 2.1 2.8 2.6 4.5v.2c0 .3-.1.5-.3.7l-.1.1-1.1 1.6c-.8 1.1-1.2 2.4-1.3 3.8l-1.6 1.6C5.9 23.6 3.7 28 3 32.8c-.2 1.2-.3 2.3-.3 3.5 0 2.9.6 5.8 1.6 8.5l1.5 3.8C2.1 52.6 0 57.6 0 63c0 .4.3.8.7 1H1c.3 0 .7-.2.9-.5.9-1.4 2-2.6 3.4-3.6 1.4-.9 3-1.5 4.6-1.8 1.1-.2 2.1-.8 2.5-1.8l.8-1.7 1.4 1.4c.6.6 1.3.9 2.1.9h1.9c2.4 0 4.8 1 6.5 2.7.3.3.8.4 1.2.2.4-.2.6-.7.5-1.1-.7-2.6-2-5-3.8-7-1.8-2-4.1-3.5-6.7-4.3l-1.1-.4c-1.3-.4-2.2-1.6-2.2-3s.3-2.7 1-3.9c.6-1.2 1.6-2.2 2.8-2.9l4.5-2.8c2.3-1.4 5-2.3 7.7-2.4-.2 1.4-.6 2.8-1.3 4l-.1.1c-.8 1.4-2 2.6-3.3 3.5-.8.6-1.3 1.4-1.3 2.3 0 1.5 1.2 2.7 2.7 2.7h.5l4.7-.9c2.9-.5 5.6-1.9 7.7-4v.3c0 .9-.2 1.8-.6 2.6-.2.4-.3.8-.3 1.2 0 1.2.8 2.3 1.9 2.6.3.1.6.1.9.1.7 0 1.4-.3 2-.8l.6-.6c1.9-1.9 3.4-4.1 4.4-6.6.9-2.2 1.4-4.4 1.5-6.8h4.9l3.9 1H61c1.7 0 3-1.3 3-3 0-.5-.3-1.3-.9-1.8zm-2.2-.9h-.8l-3.5-.6c-1.4-.2-2.6-.9-3.6-1.9l-1.1-1.1c-1-1-2.1-1.7-3.4-2 .3-.1.6-.1.9 0 1.7.4 3.4.6 5.1.6h.3l3.1 1.3c1.6.7 2.7 2.1 3 3.7zm-40.7 5.8-4.5 2.8c-1 .6-1.9 1.4-2.6 2.3v-.1c.1-.4.2-.7.4-1.1 0-.1.1-.2.1-.3.1-.3.2-.6.4-.8.1-.1.1-.2.2-.4s.3-.5.4-.7c.1-.1.1-.2.2-.3.2-.3.4-.5.5-.8 0-.1.1-.1.1-.2.2-.3.5-.6.8-.9l.2-.2.6-.6.3-.3c.2-.2.4-.4.7-.5.1-.1.2-.2.3-.2.3-.2.7-.5 1-.7 1.5-.9 3.3-1.4 5.1-1.4.4 0 .8 0 1.1.1l3.7.4c-.1.3-.2.7-.2 1.1-3.1.2-6.1 1.1-8.8 2.8zM45.6 38c-.9 2.2-2.3 4.2-4 5.9l-.6.6c-.2.2-.5.3-.8.2-.4-.1-.5-.5-.5-.7 0-.1 0-.2.1-.3.5-1.1.8-2.3.8-3.5 0-.6-.1-1.1-.2-1.7l-.1-.6c.1-.2.2-.4.4-.6.1-.2.3-.4.4-.6.2-.3.3-.6.5-.9l.3-.6c.1-.3.3-.7.4-1 .1-.2.1-.4.2-.5.2-.5.3-1 .4-1.6V32H47c-.1 2.1-.6 4.1-1.4 6zm-2.3-8.7c.1-.2.1-.4.2-.6 0-.1.1-.1.1-.2.1-.2.2-.4.4-.6l.5-.7c.6.2 1.1.3 1.7.5.2.1.4.2.6.2.3.1.7.3 1 .4.2.1.4.2.7.3.3.2.6.3.9.5.2.1.4.3.7.4.2.1.5.3.7.5h-7.7c0-.2.1-.4.1-.6l.1-.1zM61 31h-2.9l-3.7-.9-2.4-1.6c-2.4-1.6-5-2.7-7.7-3.4-.4-.1-.8.1-1.1.4l-.9 1.3c-.2.3-.4.6-.5 1 0 .1-.1.2-.1.3-.1.2-.2.5-.3.7 0 .1-.1.3-.1.4-.1.2-.1.4-.1.6v1.1l-.2.8c-.4 1.9-1.2 3.7-2.4 5.3-.3.4-.7.9-1.1 1.3-1.9 1.9-4.2 3.1-6.8 3.5l-4.7.9h-.1c-.4 0-.7-.3-.7-.7 0-.2.1-.5.3-.6 1.6-1.1 2.9-2.5 3.9-4.1l.1-.1c1.1-1.8 1.7-3.9 1.7-6.1v-1c0-.6.4-1 1-1h2c.6 0 1-.4 1-1s-.4-1-1-1h-2.9l-5.3-.6c-.4-.1-.9-.1-1.4-.1-2.1 0-4.3.6-6.1 1.7-.4.2-.7.4-1 .7-.2.2-.5.3-.7.5-.1.1-.2.1-.3.2l-.6.6c-.1.1-.2.2-.3.2l-.6.6c-.1.1-.2.2-.2.3-.2.2-.3.4-.5.6-.1.1-.2.2-.2.3-.2.2-.3.4-.5.6-.1.1-.1.2-.2.3-.1.2-.3.4-.4.7-.1.1-.1.2-.2.3-.1.2-.2.4-.3.7-.1.1-.1.2-.2.4s-.2.4-.3.7c-.1.1-.1.3-.2.4-.1.2-.1.4-.2.7 0 .1-.1.3-.1.4-.1.2-.1.4-.2.7 0 .2-.1.3-.1.5s-.1.4-.1.6c0 .2-.1.3-.1.5s0 .4-.1.6V43.1c0 .2.1.4.1.6 0 .2.1.4.1.6 0 2.2 1.5 4.1 3.5 4.8l1.3.4c2.2.7 4.2 2 5.9 3.8.9.9 1.6 2 2.2 3.1-1.6-.8-3.4-1.3-5.2-1.3h-1.9c-.3 0-.5-.1-.7-.3l-2.4-2.4c-.2-.2-.6-.3-.9-.3-.3.1-.6.3-.7.5l-1.5 2.9c-.2.4-.6.7-1 .7-2 .3-3.8 1-5.5 2.1-.7.5-1.3 1-1.9 1.5.6-3.7 2.4-7.1 5.1-9.7l.3-.3v-.1l.1-.1.2-.4c1.3-1.9 1.6-4.3.9-6.5-.2-.5-.7-.8-1.3-.6-.5.2-.8.7-.6 1.3.4 1.1.4 2.2.1 3.3l-1-2.4c-1-2.5-1.5-5.1-1.5-7.8 0-1 .1-2.1.2-3.2.7-4.4 2.7-8.4 5.9-11.6l1.9-1.9 3.9-3c.4-.3.5-1 .2-1.4-.3-.4-1-.5-1.4-.2l-1.8 1.4c.1-.2.2-.4.4-.6l1-1.5c.5-.6.8-1.3.8-2.1 0-.2 0-.5-.1-.7-.5-2.1-1.6-4-3.1-5.5L10 3.7c-.3-.4-.2-.9-.1-1.1.1-.1.3-.6.9-.6h1c2.7 0 5.5.6 8 1.7s4.7 2.8 6.5 4.9c.1.3.4.4.7.4h4.4c5.6 0 11.1.9 16.4 2.7 2.3.8 4.2 2.3 5.6 4.3.6.9.9 2 .9 3 0 .3 0 .7-.1 1h-1c-.2 0-.5 0-.7-.1h-.4c-.3 0-.5-.1-.8-.1-.1 0-.2 0-.4-.1-.4-.1-.7-.2-1.1-.2-1.3-.3-2.8.1-3.7 1l-.8.8c-.3.3-.4.7-.2 1.1.2.4.5.6.9.6 1.7 0 3.2.6 4.4 1.8l1.1 1.1c1.3 1.3 2.9 2.1 4.7 2.4l3.6.6H61c.3 0 .5.1.7.3.2.2.3.4.3.7 0 .7-.4 1.1-1 1.1zM47 19c.6 0 1-.4 1-1s-.4-1-1-1h-.5l-1.9-1.9c-1.4-1.4-3.8-1.4-5.2 0l-2.2 2.2-.1.1c-.4.4-1 .6-1.6.6H35c-.6 0-1 .4-1 1s.4 1 1 1h.6c.8 0 1.6-.2 2.3-.6l1.5 1.5c.2.2.3.3.5.4h.1c.1.1.2.1.3.2.1.1.2.1.3.2.1 0 .2 0 .2.1.2.1.3.1.5.1H42.7c.2 0 .3-.1.5-.1.1 0 .2 0 .2-.1.1 0 .2-.1.3-.2.1-.1.2-.1.3-.2l.1-.1c.2-.1.3-.3.5-.4l1.9-1.9h.5zm-3.8-2.4 1.5 1.4-1.5 1.4c-.6.6-1.8.6-2.4 0L39.3 18l1.5-1.4c.6-.7 1.8-.7 2.4 0z"/>
</svg>
