<svg xmlns="http://www.w3.org/2000/svg" viewBox="0 0 67.6 69.1" style="enable-background:new 0 0 67.6 69.1" xml:space="preserve">
  <path d="M33.6 47.6c2.3 0 4.2 1.9 4.2 4.2 0 2.3-1.9 4.2-4.2 4.2-2.3 0-4.2-1.9-4.2-4.2 0-2.3 1.9-4.2 4.2-4.2zm1.3-35.5c9.3.2 17.1 10.3 10.8 19.2-1.5 2-3.4 2.6-5.1 3.5-3 1.6-3.8 1.2-3.8 4.9 0 4.4-6.5 4.3-6.7 0l-.1-2.6c-.1-2.5 1.7-4.6 3.2-5.7 2.3-1.6 3.6-1.5 5.5-4 4.6-5.7-3.8-11.6-10.2-7.2-1.6 1.1-2.6 2.7-2.6 5.7.1 4.4-6.5 4.4-6.4 0 0-4.7 2.2-8.6 5.2-10.8 3.1-2.1 6.7-3 10.2-3zM34.3 0c-3.4-.1-6.8.4-9.9 1.2-12.7 3.5-22.5 14-24 26.7s1.7 21.8 7.9 28.6l-2.9 8.4c-1 2.9.8 5.1 3.6 3.9l10.3-4.2c3.2 1.5 6.7 2.5 10.5 3C48.4 69.8 65.2 57.2 67.5 38 69.7 18.8 56.4 2.5 37.8.3 36.7.1 35.5 0 34.3 0z" style="fill-rule:evenodd;clip-rule:evenodd"/>
</svg>
