<svg xmlns="http://www.w3.org/2000/svg" viewBox="0 0 95 81.5" style="enable-background:new 0 0 95 81.5" xml:space="preserve">
  <path d="m95 78.5-5.1-39.8c-.1-.9-.8-1.8-1.7-2.1l-8.6-3.1c-.8 1.5-1.6 3.1-2.4 4.6l7.7 2.8 4.4 34.3L71 69.3l-1.3-20.2c-.9.4-1.9.6-3 .6-.7 0-1.5-.1-2.1-.3l1.3 20-16 5.8V40.7l6.4-2.6-2.4-4.6-6.4 2.7-17.6-7.3c-.6-.2-1.3-.3-1.9-.1L6.8 36.6c-.9.3-1.5 1.1-1.7 2.1L0 78.5c-.1.9.2 1.7.9 2.3.7.6 1.6.7 2.4.5l22.9-7.4 20.4 7.4c.6.2 1.2.2 1.7 0l20.4-7.4 22.9 7.4c.3.1.5.1.8.1.6 0 1.2-.2 1.6-.6.7-.6 1.1-1.4 1-2.3zm-71.1-9.2L5.6 75.2 10 40.9l16.1-5.8-2.2 34.2zm21 5.9-16-5.8L31.1 35l13.8 5.7v34.5z"/>
  <path d="M64.9 43.4c.8 1.6 3.1 1.6 3.9 0 0 0 9.1-17.8 11.2-22s2.2-8.9 0-13.3C76.4.8 67.5-2.1 60.2 1.6s-10.1 12.8-6.5 19.8c3.6 7 11.2 22 11.2 22zm2-35.4c3.9 0 7 3.1 7 7s-3.1 7-7 7-7-3.1-7-7c0-3.8 3.1-7 7-7z"/>
</svg>
