<?xml version="1.0" standalone="no"?>
<!DOCTYPE svg PUBLIC "-//W3C//DTD SVG 1.1//EN" "http://www.w3.org/Graphics/SVG/1.1/DTD/svg11.dtd" >
<svg>
<metadata>
Created by FontForge 20120731 at Sat Nov 13 23:56:12 2021
 By fw_worker
Roley Poley Rometheme
</metadata>
<defs>
<font id="RoleyPoley" horiz-adv-x="786" >
  <font-face 
    font-family="Roley Poley"
    font-weight="400"
    font-stretch="normal"
    units-per-em="1000"
    panose-1="0 0 0 0 0 0 0 0 0 0"
    ascent="800"
    descent="-200"
    x-height="700"
    cap-height="717"
    bbox="-614 -256 1089 1122"
    underline-thickness="50"
    underline-position="-100"
    unicode-range="U+0020-2212"
  />
<missing-glyph horiz-adv-x="250" 
 />
    <glyph glyph-name=".notdef" horiz-adv-x="250" 
 />
    <glyph glyph-name=".null" horiz-adv-x="0" 
 />
    <glyph glyph-name=".null" horiz-adv-x="0" 
 />
    <glyph glyph-name="nonmarkingreturn" horiz-adv-x="250" 
 />
    <glyph glyph-name="space" unicode=" " horiz-adv-x="250" 
 />
    <glyph glyph-name="A" unicode="A" horiz-adv-x="772" 
d="M8 -5l303 767l178 -62l291 -702l-187 -80l-46 121l-313 -32l-27 -75zM394 442l-85 -232l174 -2z" />
    <glyph glyph-name="B" unicode="B" horiz-adv-x="642" 
d="M250 -72c-76 0 -152 12 -226 28l12 47l32 609l-3 73c61 7 121 12 182 12c148 0 335 -43 335 -223c0 -38 -7 -75 -22 -109c49 -27 76 -81 76 -136c0 -219 -196 -301 -386 -301zM228 465l3 -71l63 3c45 4 86 12 110 30c35 24 -53 38 -152 38h-24zM239 210l2 -35
c38 -3 78 -5 113 -5c56 0 98 5 101 19c2 11 -74 18 -158 22c-10 -1 -20 -1 -30 -1h-28z" />
    <glyph glyph-name="C" unicode="C" horiz-adv-x="574" 
d="M318 -27c-194 0 -292 171 -292 348c0 189 110 385 317 385c104 0 186 -49 240 -138l-153 -136c-28 45 -70 68 -111 68c-58 0 -112 -47 -112 -140c0 -87 36 -179 136 -179c33 0 60 8 82 34l122 -132c-59 -69 -137 -110 -229 -110z" />
    <glyph glyph-name="D" unicode="D" horiz-adv-x="602" 
d="M80 0l-32 -7l32 619l-3 73c55 6 109 12 165 12c183 0 365 -69 365 -283c0 -242 -221 -386 -440 -409c-19 -2 -39 -5 -59 -5h-28zM424 374c0 87 -123 89 -184 89l11 -259c90 28 173 80 173 170z" />
    <glyph glyph-name="E" unicode="E" horiz-adv-x="497" 
d="M450 -44c-137 11 -302 10 -438 21c9 236 18 488 27 723l128 7c103 8 207 17 311 25l-29 -243c-82 7 -164 13 -247 20c2 -35 3 -70 5 -106c84 19 168 37 252 56l-29 -244c-72 1 -144 1 -216 1c1 -14 2 -29 2 -44c90 10 181 21 262 27z" />
    <glyph glyph-name="F" unicode="F" horiz-adv-x="493" 
d="M24 -23c9 236 21 488 31 723l109 6c109 9 218 17 326 26l-28 -243c-82 6 -164 13 -247 20c2 -35 3 -70 5 -106c84 19 167 37 251 56l-28 -244c-72 1 -144 1 -216 1c3 -64 5 -128 8 -193z" />
    <glyph glyph-name="G" unicode="G" horiz-adv-x="613" 
d="M326 -27c-194 0 -292 171 -292 348c0 135 43 251 153 334c44 33 109 51 164 51c104 0 186 -49 240 -138l-153 -136c-29 48 -70 70 -109 70c-60 0 -114 -52 -114 -142c0 -87 32 -179 136 -179c29 0 54 7 75 26v79l181 39l-2 -378l-181 -39v82c-30 -11 -63 -17 -98 -17z
" />
    <glyph glyph-name="H" unicode="H" horiz-adv-x="716" 
d="M30 -23l6 700l211 46l-2 -253h246v207l211 46v-700l-211 -46v249h-248l-2 -203z" />
    <glyph glyph-name="I" unicode="I" horiz-adv-x="248" 
d="M69 684l152 33l30 -695l-211 -46z" />
    <glyph glyph-name="J" unicode="J" horiz-adv-x="463" 
d="M47 -120l-9 240c274 41 210 354 212 557l211 46c-3 -350 26 -776 -414 -843z" />
    <glyph glyph-name="K" unicode="K" horiz-adv-x="588" 
d="M227 249l-23 -27l9 -199l-211 -46l29 707l152 33l10 -222l268 261l102 -111l-179 -212l195 -429l-129 -115z" />
    <glyph glyph-name="L" unicode="L" horiz-adv-x="490" 
d="M24 746l211 -46c-6 -166 -13 -348 -21 -523c93 7 185 15 277 22l-29 -243c-136 11 -272 22 -408 34l2 20h-2c-10 236 -20 500 -30 736z" />
    <glyph glyph-name="M" unicode="M" horiz-adv-x="883" 
d="M24 -38l55 738h209l-1 -11l171 -331l170 342h199l51 -677l-211 -45l-24 338l-97 -196h-191l-96 184l-22 -302z" />
    <glyph glyph-name="N" unicode="N" horiz-adv-x="742" 
d="M34 -23l6 700l211 46v-1l277 -356v311l211 46v-700l-211 -46v1l-1 -1l-280 360l-2 -314z" />
    <glyph glyph-name="O" unicode="O" horiz-adv-x="635" 
d="M322 -27c-194 0 -292 171 -292 348c0 189 110 385 317 385c194 0 292 -170 292 -346c0 -191 -108 -387 -317 -387zM211 360c0 -87 36 -179 136 -179c85 0 112 63 112 140c0 121 -71 183 -137 183c-57 0 -111 -47 -111 -144z" />
    <glyph glyph-name="P" unicode="P" horiz-adv-x="591" 
d="M48 -7l32 619l-3 73c48 5 108 11 171 11c165 0 346 -39 346 -222c0 -55 -14 -110 -47 -154c-67 -92 -169 -111 -277 -111c-6 0 -12 0 -19 1l8 -171zM240 463l3 -66c260 14 213 67 36 67c-12 0 -25 -1 -39 -1z" />
    <glyph glyph-name="Q" unicode="Q" horiz-adv-x="652" 
d="M335 -27c-195 0 -293 171 -293 348c0 189 110 385 317 385c195 0 293 -170 293 -346c0 -97 -28 -195 -83 -268l60 -89l-154 -137l-75 114c-20 -5 -42 -7 -65 -7zM335 504c-58 0 -112 -47 -112 -144c0 -87 33 -179 136 -179c88 0 112 63 112 140c0 121 -71 183 -136 183z
" />
    <glyph glyph-name="R" unicode="R" horiz-adv-x="589" 
d="M259 39l-211 -46l32 619l-3 73c48 5 108 11 171 11c165 0 346 -39 346 -222c0 -92 -41 -173 -120 -221l121 -206l-195 -124l-107 287c-7 -1 -15 -1 -23 -1c-6 0 -12 0 -19 1zM240 463l3 -66c260 14 213 67 36 67c-12 0 -25 -1 -39 -1z" />
    <glyph glyph-name="S" unicode="S" horiz-adv-x="530" 
d="M67 428c-61 158 75 285 233 285c58 0 114 -19 167 -41l-71 -166c-39 13 -76 23 -118 23c-181 0 238 -96 238 -317c0 -142 -145 -230 -273 -230c-89 0 -152 28 -227 71l130 212c44 -29 76 -44 129 -51c68 1 -166 104 -208 214z" />
    <glyph glyph-name="T" unicode="T" horiz-adv-x="649" 
d="M32 458l28 243h596l-29 -243h-178v-435l-211 -46v481h-206z" />
    <glyph glyph-name="U" unicode="U" horiz-adv-x="681" 
d="M66 321v359l181 39v-248c0 -116 -11 -292 133 -292c78 10 113 56 115 132c3 123 0 246 0 369l181 39c0 -131 4 -269 -2 -401c-7 -175 -129 -345 -315 -345c-195 0 -293 171 -293 348z" />
    <glyph glyph-name="V" unicode="V" horiz-adv-x="734" 
d="M225 -62l-289 700l196 124l205 -454l178 432l187 -80l-251 -606z" />
    <glyph glyph-name="W" unicode="W" horiz-adv-x="930" 
d="M31 0l-103 657l206 86l72 -489l232 288l188 -256l60 412l210 3l-103 -700h-211l-175 212l-202 -213h-174z" />
    <glyph glyph-name="X" unicode="X" horiz-adv-x="627" 
d="M173 323l-207 298l179 159l171 -247l154 226l167 -118l-196 -288l190 -273l-179 -160l-154 223l-138 -202l-167 118z" />
    <glyph glyph-name="Y" unicode="Y" horiz-adv-x="662" 
d="M190 230l-214 391l179 159l156 -286l181 266l167 -119l-257 -377l-23 -262l-209 -3z" />
    <glyph glyph-name="Z" unicode="Z" horiz-adv-x="617" 
d="M50 -2l-102 98l344 381l-308 -20l29 243h482l112 -184l-356 -331l320 59l-29 -243c-164 -2 -328 -1 -492 -3z" />
    <glyph glyph-name="period" unicode="." horiz-adv-x="248" 
d="M36 111l211 46v-163l-211 -45v162z" />
    <glyph glyph-name="a" unicode="a" horiz-adv-x="772" 
d="M8 -5l303 767l178 -62l291 -702l-187 -80l-46 121l-313 -32l-27 -75zM394 442l-85 -232l174 -2z" />
    <glyph glyph-name="b" unicode="b" horiz-adv-x="642" 
d="M250 -72c-76 0 -152 12 -226 28l12 47l32 609l-3 73c61 7 121 12 182 12c148 0 335 -43 335 -223c0 -38 -7 -75 -22 -109c49 -27 76 -81 76 -136c0 -219 -196 -301 -386 -301zM228 465l3 -71l63 3c45 4 86 12 110 30c35 24 -53 38 -152 38h-24zM239 210l2 -35
c38 -3 78 -5 113 -5c56 0 98 5 101 19c2 11 -74 18 -158 22c-10 -1 -20 -1 -30 -1h-28z" />
    <glyph glyph-name="c" unicode="c" horiz-adv-x="574" 
d="M318 -27c-194 0 -292 171 -292 348c0 189 110 385 317 385c104 0 186 -49 240 -138l-153 -136c-28 45 -70 68 -111 68c-58 0 -112 -47 -112 -140c0 -87 36 -179 136 -179c33 0 60 8 82 34l122 -132c-59 -69 -137 -110 -229 -110z" />
    <glyph glyph-name="d" unicode="d" horiz-adv-x="602" 
d="M80 0l-32 -7l32 619l-3 73c55 6 109 12 165 12c183 0 365 -69 365 -283c0 -242 -221 -386 -440 -409c-19 -2 -39 -5 -59 -5h-28zM424 374c0 87 -123 89 -184 89l11 -259c90 28 173 80 173 170z" />
    <glyph glyph-name="e" unicode="e" horiz-adv-x="497" 
d="M450 -44c-137 11 -302 10 -438 21c9 236 18 488 27 723l128 7c103 8 207 17 311 25l-29 -243c-82 7 -164 13 -247 20c2 -35 3 -70 5 -106c84 19 168 37 252 56l-29 -244c-72 1 -144 1 -216 1c1 -14 2 -29 2 -44c90 10 181 21 262 27z" />
    <glyph glyph-name="f" unicode="f" horiz-adv-x="493" 
d="M24 -23c9 236 21 488 31 723l109 6c109 9 218 17 326 26l-28 -243c-82 6 -164 13 -247 20c2 -35 3 -70 5 -106c84 19 167 37 251 56l-28 -244c-72 1 -144 1 -216 1c3 -64 5 -128 8 -193z" />
    <glyph glyph-name="g" unicode="g" horiz-adv-x="613" 
d="M326 -27c-194 0 -292 171 -292 348c0 135 43 251 153 334c44 33 109 51 164 51c104 0 186 -49 240 -138l-153 -136c-29 48 -70 70 -109 70c-60 0 -114 -52 -114 -142c0 -87 32 -179 136 -179c29 0 54 7 75 26v79l181 39l-2 -378l-181 -39v82c-30 -11 -63 -17 -98 -17z
" />
    <glyph glyph-name="h" unicode="h" horiz-adv-x="716" 
d="M30 -23l6 700l211 46l-2 -253h246v207l211 46v-700l-211 -46v249h-248l-2 -203z" />
    <glyph glyph-name="i" unicode="i" horiz-adv-x="248" 
d="M69 684l152 33l30 -695l-211 -46z" />
    <glyph glyph-name="j" unicode="j" horiz-adv-x="463" 
d="M47 -120l-9 240c274 41 210 354 212 557l211 46c-3 -350 26 -776 -414 -843z" />
    <glyph glyph-name="k" unicode="k" horiz-adv-x="588" 
d="M227 249l-23 -27l9 -199l-211 -46l29 707l152 33l10 -222l268 261l102 -111l-179 -212l195 -429l-129 -115z" />
    <glyph glyph-name="l" unicode="l" horiz-adv-x="490" 
d="M24 746l211 -46c-6 -166 -13 -348 -21 -523c93 7 185 15 277 22l-29 -243c-136 11 -272 22 -408 34l2 20h-2c-10 236 -20 500 -30 736z" />
    <glyph glyph-name="m" unicode="m" horiz-adv-x="883" 
d="M24 -38l55 738h209l-1 -11l171 -331l170 342h199l51 -677l-211 -45l-24 338l-97 -196h-191l-96 184l-22 -302z" />
    <glyph glyph-name="n" unicode="n" horiz-adv-x="742" 
d="M34 -23l6 700l211 46v-1l277 -356v311l211 46v-700l-211 -46v1l-1 -1l-280 360l-2 -314z" />
    <glyph glyph-name="o" unicode="o" horiz-adv-x="635" 
d="M322 -27c-194 0 -292 171 -292 348c0 189 110 385 317 385c194 0 292 -170 292 -346c0 -191 -108 -387 -317 -387zM211 360c0 -87 36 -179 136 -179c85 0 112 63 112 140c0 121 -71 183 -137 183c-57 0 -111 -47 -111 -144z" />
    <glyph glyph-name="p" unicode="p" horiz-adv-x="591" 
d="M48 -7l32 619l-3 73c48 5 108 11 171 11c165 0 346 -39 346 -222c0 -55 -14 -110 -47 -154c-67 -92 -169 -111 -277 -111c-6 0 -12 0 -19 1l8 -171zM240 463l3 -66c260 14 213 67 36 67c-12 0 -25 -1 -39 -1z" />
    <glyph glyph-name="q" unicode="q" horiz-adv-x="652" 
d="M335 -27c-195 0 -293 171 -293 348c0 189 110 385 317 385c195 0 293 -170 293 -346c0 -97 -28 -195 -83 -268l60 -89l-154 -137l-75 114c-20 -5 -42 -7 -65 -7zM335 504c-58 0 -112 -47 -112 -144c0 -87 33 -179 136 -179c88 0 112 63 112 140c0 121 -71 183 -136 183z
" />
    <glyph glyph-name="r" unicode="r" horiz-adv-x="589" 
d="M259 39l-211 -46l32 619l-3 73c48 5 108 11 171 11c165 0 346 -39 346 -222c0 -92 -41 -173 -120 -221l121 -206l-195 -124l-107 287c-7 -1 -15 -1 -23 -1c-6 0 -12 0 -19 1zM240 463l3 -66c260 14 213 67 36 67c-12 0 -25 -1 -39 -1z" />
    <glyph glyph-name="s" unicode="s" horiz-adv-x="530" 
d="M67 428c-61 158 75 285 233 285c58 0 114 -19 167 -41l-71 -166c-39 13 -76 23 -118 23c-181 0 238 -96 238 -317c0 -142 -145 -230 -273 -230c-89 0 -152 28 -227 71l130 212c44 -29 76 -44 129 -51c68 1 -166 104 -208 214z" />
    <glyph glyph-name="t" unicode="t" horiz-adv-x="649" 
d="M32 458l28 243h596l-29 -243h-178v-435l-211 -46v481h-206z" />
    <glyph glyph-name="u" unicode="u" horiz-adv-x="681" 
d="M66 321v359l181 39v-248c0 -116 -11 -292 133 -292c78 10 113 56 115 132c3 123 0 246 0 369l181 39c0 -131 4 -269 -2 -401c-7 -175 -129 -345 -315 -345c-195 0 -293 171 -293 348z" />
    <glyph glyph-name="v" unicode="v" horiz-adv-x="734" 
d="M225 -62l-289 700l196 124l205 -454l178 432l187 -80l-251 -606z" />
    <glyph glyph-name="w" unicode="w" horiz-adv-x="930" 
d="M31 0l-103 657l206 86l72 -489l232 288l188 -256l60 412l210 3l-103 -700h-211l-175 212l-202 -213h-174z" />
    <glyph glyph-name="x" unicode="x" horiz-adv-x="627" 
d="M173 323l-207 298l179 159l171 -247l154 226l167 -118l-196 -288l190 -273l-179 -160l-154 223l-138 -202l-167 118z" />
    <glyph glyph-name="y" unicode="y" horiz-adv-x="662" 
d="M190 230l-214 391l179 159l156 -286l181 266l167 -119l-257 -377l-23 -262l-209 -3z" />
    <glyph glyph-name="z" unicode="z" horiz-adv-x="617" 
d="M50 -2l-102 98l344 381l-308 -20l29 243h482l112 -184l-356 -331l320 59l-29 -243c-164 -2 -328 -1 -492 -3z" />
    <glyph glyph-name="comma" unicode="," horiz-adv-x="268" 
d="M154 -104v78l-118 -25v162l211 46v-144l-1 -117h-92z" />
    <glyph glyph-name="zero" unicode="0" horiz-adv-x="684" 
d="M359 -27c-195 0 -293 171 -293 348c0 189 110 385 317 385c195 0 293 -170 293 -346c0 -191 -109 -387 -317 -387zM327 482l136 -233c13 24 17 51 17 78c0 107 -62 162 -120 162c-11 0 -23 -2 -33 -7zM268 410c-4 -14 -6 -30 -6 -49c0 -82 33 -156 126 -156z" />
    <glyph glyph-name="one" unicode="1" horiz-adv-x="396" 
d="M152 471l-110 -13l28 243l305 35l-12 -106v-607l-211 -46v494z" />
    <glyph glyph-name="two" unicode="2" horiz-adv-x="572" 
d="M-72 432c80 141 212 279 386 279c108 0 193 -93 193 -199c0 -98 -51 -188 -123 -267c46 0 92 1 138 1l-29 -243c-161 -1 -356 -1 -517 -1v211c96 52 188 109 265 187c52 52 53 70 33 70c-21 0 -65 -20 -94 -44c-40 -32 -60 -67 -85 -113z" />
    <glyph glyph-name="three" unicode="3" horiz-adv-x="597" 
d="M253 -23c-90 0 -150 16 -233 49l96 210c43 -17 103 -37 157 -37c17 0 33 2 49 7c-43 10 -87 16 -122 19c0 0 -1 0 -2 -1l-43 209c50 15 83 27 128 52c-8 2 -18 3 -25 3c-33 0 -65 -5 -97 -14l2 1c-31 -9 -60 -22 -89 -35l-43 208c75 35 160 63 244 63
c123 0 212 -44 227 -169c0 -6 1 -13 1 -19c-2 -47 -14 -87 -34 -122c65 -27 115 -69 115 -136c0 -172 -172 -288 -331 -288z" />
    <glyph glyph-name="four" unicode="4" horiz-adv-x="673" 
d="M445 132h-385l28 241l-1 1l236 385l122 -86v4l211 46v-700l-211 -46v155zM327 376h118v191z" />
    <glyph glyph-name="five" unicode="5" horiz-adv-x="594" 
d="M18 237l66 477l208 3h246l-29 -179h-242l-9 -67c36 6 72 10 107 10c141 0 212 -61 228 -192c1 -7 0 -15 0 -22c-8 -176 -176 -293 -356 -293c-64 0 -110 9 -170 30l98 214c53 -18 95 -25 127 -25c102 0 90 75 -10 75c-36 0 -82 -9 -138 -35z" />
    <glyph glyph-name="six" unicode="6" horiz-adv-x="612" 
d="M30 265c0 228 119 395 355 468l43 -202c-34 -11 -71 -29 -103 -53c112 -1 228 -41 273 -153c6 -22 13 -46 12 -69c-7 -162 -130 -273 -294 -273c-163 0 -286 121 -286 282zM242 260c14 -40 41 -72 87 -72c65 0 115 74 -37 74c-17 0 -33 -1 -50 -2z" />
    <glyph glyph-name="seven" unicode="7" horiz-adv-x="593" 
d="M303 449l-257 -7l29 243l499 14v-162l-283 -563l-187 80z" />
    <glyph glyph-name="eight" unicode="8" horiz-adv-x="572" 
d="M50 234c0 84 30 141 83 177c-13 20 -21 46 -21 81c0 121 82 226 209 226c112 0 188 -82 188 -193c0 -38 -9 -70 -24 -95c53 -24 85 -71 85 -152c0 -159 -108 -298 -274 -298c-147 0 -246 109 -246 254zM285 316c-92 0 -74 -114 26 -118c3 0 6 -1 9 -1
c130 0 57 119 -35 119zM286 607c-50 0 -32 -104 23 -106h9c116 0 50 106 -32 106z" />
    <glyph glyph-name="nine" unicode="9" horiz-adv-x="602" 
d="M22 373c-6 22 -13 46 -12 69c7 162 130 273 294 273c163 0 286 -122 286 -282c0 -228 -119 -395 -355 -469l-43 203c34 11 71 28 103 52c-112 2 -228 42 -273 154zM291 510c-65 0 -115 -74 37 -74c17 0 33 1 50 2c-14 40 -42 72 -87 72z" />
    <glyph glyph-name="hyphen" unicode="-" horiz-adv-x="485" 
d="M84 161l23 194h385l-23 -194h-385z" />
    <glyph glyph-name="plus" unicode="+" horiz-adv-x="610" 
d="M231 315h-177l22 195h155v107l195 -23v-84h177l-23 -195h-154v-106l-195 22v84z" />
    <glyph glyph-name="asterisk" unicode="*" horiz-adv-x="268" 
d="M121 574h-59v40h58l-30 40l39 30l38 -50l37 50l40 -30l-30 -40h53v-40h-54l31 -42l-40 -30l-37 50l-37 -50l-40 30z" />
    <glyph glyph-name="asciicircum" unicode="^" horiz-adv-x="497" 
d="M285 643l-178 -375l-47 14l202 425h47l191 -418l-47 -14z" />
    <glyph glyph-name="tilde" unicode="&#x2dc;" horiz-adv-x="447" 
d="M22 573c0 68 55 119 122 119c80 0 150 -74 183 -74c12 0 19 10 20 36h79c-1 -68 -40 -125 -113 -125c-60 0 -146 79 -187 79c-14 0 -22 -10 -22 -35v-11h-81c-1 4 -1 7 -1 11z" />
    <glyph glyph-name="slash" unicode="/" horiz-adv-x="372" 
d="M263 714l94 -28l-275 -685l-94 28z" />
    <glyph glyph-name="backslash" unicode="\" horiz-adv-x="372" 
d="M-12 686l94 28l275 -685l-94 -28z" />
    <glyph glyph-name="colon" unicode=":" horiz-adv-x="268" 
d="M247 -6l-211 -45v162l211 46v-163zM36 602l211 46v-162l-211 -46v162z" />
    <glyph glyph-name="semicolon" unicode=";" horiz-adv-x="268" 
d="M36 111l211 46v-144l-1 -117h-92v78l-118 -25v162zM36 440v162l211 46v-162z" />
    <glyph glyph-name="less" unicode="&#x3c;" horiz-adv-x="499" 
d="M110 358l387 -178l-14 -47l-425 202v47l418 191l14 -47z" />
    <glyph glyph-name="equal" unicode="=" horiz-adv-x="572" 
d="M54 88l22 195h527l-23 -195h-526zM54 390l22 195h527l-23 -195h-526z" />
    <glyph glyph-name="greater" unicode="&#x3e;" horiz-adv-x="497" 
d="M58 180l387 178l-380 168l14 47l418 -191v-47l-425 -202z" />
    <glyph glyph-name="exclam" unicode="!" horiz-adv-x="269" 
d="M36 111l211 46v-163l-211 -45v162zM38 677l210 46l-41 -520l-128 -28z" />
    <glyph glyph-name="question" unicode="?" horiz-adv-x="575" 
d="M66 616c75 67 187 137 291 137c34 0 65 -4 97 -16c69 -23 123 -106 123 -178c0 -182 -204 -298 -199 -381l-129 -28c-1 7 -3 14 -3 20c0 175 239 330 131 370c-9 3 -19 5 -29 5c-63 0 -128 -69 -169 -113zM212 111l211 46v-163l-211 -45v162z" />
    <glyph glyph-name="quotesingle" unicode="'" horiz-adv-x="181" 
d="M56 686l127 28l-25 -266l-77 -17z" />
    <glyph glyph-name="quotedbl" unicode="&#x22;" horiz-adv-x="330" 
d="M207 686l126 28l-24 -266l-78 -17zM56 686l127 28l-25 -266l-77 -17z" />
    <glyph glyph-name="numbersign" unicode="#" horiz-adv-x="673" 
d="M72 388l16 146h127l24 165l126 2l-25 -167h133l25 165l125 2l-25 -167h78l-16 -146h-83l-13 -85h112l-16 -146h-117l-23 -156l-125 -2l23 158h-133l-23 -156l-126 -2l23 158h-87l16 146h93l12 85h-121zM319 388l-13 -85h133l13 85h-133z" />
    <glyph glyph-name="at" unicode="@" horiz-adv-x="722" 
d="M104 349c0 179 134 294 309 294c174 0 308 -115 308 -294c0 -180 -133 -295 -308 -295c-176 0 -309 115 -309 295zM413 590c-147 0 -222 -107 -222 -241c0 -136 76 -242 222 -242c145 0 221 106 221 242c0 134 -75 241 -221 241zM255 226l130 328l77 -27l124 -300
l-80 -34l-20 51l-134 -13l-11 -32zM421 417l-37 -100h75z" />
    <glyph glyph-name="dollar" unicode="$" horiz-adv-x="534" 
d="M48 53l129 212c41 -27 82 -51 133 -51c57 0 -170 106 -211 214c-50 129 31 237 149 273v70h141v-64c38 -8 74 -21 109 -35l-71 -166c-39 13 -76 23 -117 23c-181 0 237 -96 237 -317c0 -99 -71 -172 -157 -207v-112h-142v90c-75 5 -133 31 -200 70z" />
    <glyph glyph-name="Euro" unicode="&#x20ac;" horiz-adv-x="572" 
d="M-9 349h-77v57h84c28 158 133 300 309 300c104 0 187 -49 240 -138l-153 -136c-27 45 -70 68 -110 68c-48 0 -93 -31 -108 -94h136v-57h-141c1 -10 1 -19 3 -29l138 1v-57h-124c20 -48 57 -83 119 -83c34 0 61 8 83 34l121 -132c-58 -69 -136 -110 -228 -110
c-174 0 -270 136 -289 290l-80 1v56l76 1c0 9 0 18 1 28z" />
    <glyph glyph-name="percent" unicode="%" horiz-adv-x="752" 
d="M450 156c0 93 54 190 156 190c96 0 144 -84 144 -170c0 -94 -54 -191 -156 -191c-96 0 -144 85 -144 171zM66 517c0 93 54 189 156 189c96 0 144 -83 144 -170c0 -94 -54 -190 -156 -190c-96 0 -144 84 -144 171zM229 29l275 685l94 -28l-275 -685zM578 236l67 -115
c7 12 8 25 8 39c0 52 -30 79 -58 79c-6 0 -12 -1 -17 -3zM211 599c-6 0 -12 -1 -17 -3l67 -115c7 12 8 25 8 39c0 52 -30 79 -58 79zM163 537c0 -40 15 -77 61 -77l-59 101c-1 -7 -2 -15 -2 -24zM549 200c-1 -7 -2 -15 -2 -24c0 -40 16 -76 61 -76z" />
    <glyph glyph-name="ampersand" unicode="&#x26;" horiz-adv-x="695" 
d="M54 117c0 90 52 157 111 219c-26 46 -48 103 -48 154c0 132 108 249 242 249c91 0 172 -61 172 -158c0 -92 -69 -161 -142 -228c22 -26 47 -51 72 -77c38 44 71 93 100 142l134 -94c-30 -51 -69 -109 -114 -163c33 -29 64 -56 89 -76l-103 -170c-39 31 -83 69 -128 111
c-65 -46 -136 -76 -211 -76c-101 0 -174 63 -174 167zM225 150c-4 -13 2 -18 15 -18c16 0 43 9 68 21c-19 20 -37 40 -54 60c-13 -20 -23 -41 -29 -63zM323 548c-22 0 -40 -29 -26 -62c2 -5 4 -9 7 -14c32 35 50 62 33 72c-5 3 -9 4 -14 4z" />
    <glyph glyph-name="parenleft" unicode="(" horiz-adv-x="337" 
d="M54 239c0 197 60 363 163 527l134 -94c-42 -67 -72 -129 -98 -203c-15 -52 -24 -103 -29 -158v2c-1 -12 -1 -24 -1 -37c0 -54 8 -106 20 -158c27 -89 57 -145 112 -220l-142 -128c-102 139 -159 296 -159 469z" />
    <glyph glyph-name="parenright" unicode=")" horiz-adv-x="317" 
d="M157 -230l-143 128c55 75 85 131 112 220c12 52 21 104 21 158c0 13 -1 25 -1 37v-2c-5 55 -15 106 -30 159l2 -3c-26 75 -57 137 -99 205l133 94c103 -164 164 -330 164 -527c0 -173 -58 -330 -159 -469z" />
    <glyph glyph-name="braceleft" unicode="{" horiz-adv-x="402" 
d="M135 -17c0 119 65 191 -87 203v131c152 12 87 84 87 203c0 35 6 68 22 100c50 99 154 107 252 108l-22 -195c-20 2 -37 3 -50 3c-91 0 -46 -46 -59 -145c-8 -62 -31 -108 -63 -140c32 -31 55 -77 63 -139c12 -99 -32 -145 59 -145c13 0 30 1 50 3l22 -195
c-98 1 -202 9 -252 108c-16 32 -22 65 -22 100z" />
    <glyph glyph-name="bar" unicode="|" horiz-adv-x="141" 
d="M68 -205v905h69v-905h-69z" />
    <glyph glyph-name="braceright" unicode="}" horiz-adv-x="405" 
d="M48 -225l22 195c20 -2 37 -3 50 -3c91 0 47 46 59 145c8 62 31 108 63 140c-32 31 -55 77 -63 139c-12 99 32 145 -59 145c-13 0 -30 -1 -50 -3l-22 195c98 -1 203 -9 252 -108c16 -32 22 -65 22 -100c0 -119 -64 -191 87 -203v-131c-151 -12 -87 -84 -87 -203
c0 -35 -6 -68 -22 -100c-49 -99 -154 -107 -252 -108z" />
    <glyph glyph-name="bracketleft" unicode="[" horiz-adv-x="376" 
d="M365 -173h-270l7 40v815l-8 44h271l22 -125h-117v-649h117z" />
    <glyph glyph-name="bracketright" unicode="]" horiz-adv-x="341" 
d="M342 -173h-270l-22 125h116v649h-116l22 125h270l-7 -44v-815z" />
    <glyph glyph-name="quoteleft" unicode="&#x2018;" horiz-adv-x="259" 
d="M129 696v-78l118 25v-162l-211 -46v144l1 117h92z" />
    <glyph glyph-name="quoteright" unicode="&#x2019;" horiz-adv-x="259" 
d="M154 435v79l-118 -26v163l211 45v-144l-1 -117h-92z" />
    <glyph glyph-name="quotedblleft" unicode="&#x201c;" horiz-adv-x="500" 
d="M277 579h-1l1 117h92v-78l119 25v-162l-211 -46v144zM247 481l-211 -46v144l1 117h92v-78l118 25v-162z" />
    <glyph glyph-name="quotedblright" unicode="&#x201d;" horiz-adv-x="497" 
d="M276 651l211 45v-144h1l-1 -117h-92l-1 79l-118 -26v163zM36 488v163l211 45v-144l-1 -117h-92v79z" />
    <glyph glyph-name="quotesinglbase" unicode="&#x201a;" horiz-adv-x="250" 
d="M154 -104v78l-118 -25v162l211 46v-144l-1 -117h-92z" />
    <glyph glyph-name="quotedblbase" unicode="&#x201e;" horiz-adv-x="497" 
d="M394 -26l-118 -25v162l211 46v-261h-92zM36 -51v162l211 46v-144l-1 -117h-92v78z" />
    <glyph glyph-name="bullet" unicode="&#x2022;" horiz-adv-x="234" 
d="M56 337c0 52 34 87 87 87c52 0 86 -35 86 -87s-34 -87 -86 -87c-53 0 -87 35 -87 87z" />
    <glyph glyph-name="underscore" unicode="_" horiz-adv-x="444" 
d="M0 -163v52h444v-52h-444z" />
    <glyph glyph-name="endash" unicode="&#x2013;" horiz-adv-x="444" 
d="M0 251v52h444v-52h-444z" />
    <glyph glyph-name="emdash" unicode="&#x2014;" horiz-adv-x="852" 
d="M0 251v52h852v-52h-852z" />
    <glyph glyph-name="macron" unicode="&#xaf;" horiz-adv-x="500" 
d="M56 676v52h444v-52h-444z" />
    <glyph glyph-name="logicalnot" unicode="&#xac;" horiz-adv-x="507" 
d="M58 251v52h444v-146h-52v94h-392z" />
    <glyph glyph-name="trademark" unicode="&#x2122;" horiz-adv-x="269" 
d="M170 596l-32 -6l9 111h31v-2l26 -49l25 51h30l7 -102l-31 -6l-4 50l-14 -29h-29l-14 28zM48 665l4 36h90l-5 -36h-26v-66l-32 -6v72h-31z" />
    <glyph glyph-name="registered" unicode="&#xae;" horiz-adv-x="715" 
d="M104 349c0 179 134 294 309 294c174 0 308 -115 308 -294c0 -180 -133 -295 -308 -295c-176 0 -309 115 -309 295zM413 590c-147 0 -222 -107 -222 -241c0 -136 76 -242 222 -242c145 0 221 106 221 242c0 134 -75 241 -221 241zM395 202l-109 -23l16 319l-1 38
c25 3 56 5 88 5c85 0 179 -19 179 -114c0 -47 -21 -90 -62 -114l62 -106l-101 -65l-54 149c-4 -1 -8 -1 -12 -1h-10zM385 421l2 -34c134 7 109 35 18 35c-6 0 -13 -1 -20 -1z" />
    <glyph glyph-name="copyright" unicode="&#xa9;" horiz-adv-x="720" 
d="M104 349c0 179 134 294 309 294c174 0 308 -115 308 -294c0 -180 -133 -295 -308 -295c-176 0 -309 115 -309 295zM191 349c0 -136 76 -242 222 -242c145 0 221 106 221 242c0 134 -75 241 -221 241c-147 0 -222 -107 -222 -241zM415 160c-103 0 -154 90 -154 183
c0 99 58 202 166 202c55 0 98 -26 127 -72l-81 -72c-14 24 -37 36 -58 36c-31 0 -59 -25 -59 -74c0 -46 19 -94 71 -94c18 0 32 5 44 18l64 -69c-31 -36 -72 -58 -120 -58z" />
    <glyph glyph-name="currency" unicode="&#xa4;" horiz-adv-x="604" 
d="M98 118l60 76c-27 39 -42 87 -42 141c0 61 17 119 49 165l-67 87l49 38l61 -78c40 34 93 54 154 54c60 0 112 -19 150 -53l60 77l49 -38l-68 -88c21 -36 33 -79 33 -127c0 -57 -15 -110 -42 -154l78 -100l-49 -38l-69 88c-42 -39 -98 -63 -164 -63c-55 0 -102 16 -139 44
l-54 -69zM340 407c-33 0 -61 -11 -55 -51v2c9 -50 32 -68 57 -68c63 0 135 117 -2 117z" />
    <glyph glyph-name="cent" unicode="&#xa2;" horiz-adv-x="613" 
d="M303 -22c-157 29 -237 184 -237 343c0 163 82 331 237 374v102h151v-99c71 -18 128 -62 169 -130l-153 -136c-27 45 -70 68 -110 68c-59 0 -113 -47 -113 -140c0 -87 36 -179 136 -179c34 0 61 8 83 34l121 -132c-37 -43 -82 -76 -133 -94v-106l-151 -1v96z" />
    <glyph glyph-name="sterling" unicode="&#xa3;" horiz-adv-x="533" 
d="M96 342h73c0 56 -2 112 8 153c38 155 161 222 312 222c15 0 31 -1 46 -1l-22 -195c-23 2 -46 4 -68 4c-45 0 -101 0 -118 -47c-16 -43 -20 -90 -23 -136h176v-100h-183c-5 -49 -16 -98 -43 -142h274v-100h-432v100h1c45 30 62 82 68 142h-69v100z" />
    <glyph glyph-name="yen" unicode="&#xa5;" horiz-adv-x="731" 
d="M46 621l179 159l156 -286l181 266l167 -119l-257 -377l-6 -68h81v-53h-86l-3 -33h89v-53h-93l-5 -55l-209 -3l5 58h-46v53h50l3 33h-53v53h58l3 34z" />
    <glyph glyph-name="minus" unicode="&#x2212;" horiz-adv-x="595" 
d="M54 315l22 195h527l-23 -195h-526z" />
    <glyph glyph-name="plusminus" unicode="&#xb1;" horiz-adv-x="594" 
d="M231 315h-177l22 195h155v107l195 -23v-84h177l-23 -195h-154v-106l-195 22v84zM54 -10l23 195h526l-23 -195h-526z" />
    <glyph glyph-name="multiply" unicode="&#xd7;" horiz-adv-x="572" 
d="M145 350l-103 101l156 188l122 -119l122 119l156 -188l-103 -102l103 -101l-156 -188l-122 119l-122 -119l-156 188z" />
    <glyph glyph-name="divide" unicode="&#xf7;" horiz-adv-x="604" 
d="M54 260l22 195h527l-23 -195h-526zM223 651l211 45v-162l-211 -45v162zM223 193l211 46v-162l-211 -46v162z" />
    <glyph glyph-name="brokenbar" unicode="&#xa6;" horiz-adv-x="245" 
d="M96 328v384h142v-384h-142zM238 -204h-142v384h142v-384z" />
    <glyph glyph-name="ellipsis" unicode="&#x2026;" horiz-adv-x="791" 
d="M76 111l211 46v-163l-211 -45v162zM344 111l211 46v-163l-211 -45v162zM612 111l211 46v-163l-211 -45v162z" />
    <glyph glyph-name="periodcentered" unicode="&#xb7;" horiz-adv-x="268" 
d="M92 328c0 47 31 78 78 78c46 0 77 -31 77 -78s-31 -78 -77 -78c-47 0 -78 31 -78 78z" />
    <glyph glyph-name="exclamdown" unicode="&#xa1;" horiz-adv-x="247" 
d="M248 448l-211 -45v162l211 45v-162zM247 -118l-211 -46l41 520l129 28z" />
    <glyph glyph-name="questiondown" unicode="&#xbf;" horiz-adv-x="569" 
d="M178 -207c-69 24 -122 107 -122 179c0 182 203 298 198 380l129 28c1 -6 3 -14 3 -20c0 -174 -239 -329 -131 -369c10 -4 19 -6 29 -6c63 0 128 69 169 113l113 -184c-74 -67 -187 -137 -291 -137c-34 0 -64 5 -97 16zM209 374v162l211 46v-163z" />
    <glyph glyph-name="degree" unicode="&#xb0;" horiz-adv-x="428" 
d="M242 383c-93 0 -154 69 -154 160c0 100 67 187 172 187c92 0 155 -68 155 -159c0 -101 -68 -188 -173 -188zM235 610c-90 0 -61 -98 24 -104h11c86 0 75 69 3 98c-10 4 -27 6 -38 6z" />
    <glyph glyph-name="ordfeminine" unicode="&#xaa;" horiz-adv-x="391" 
d="M56 394l132 334l77 -28l126 -304l-81 -35l-20 53l-135 -14l-12 -33zM224 589l-37 -101l76 -1z" />
    <glyph glyph-name="ordmasculine" unicode="&#xba;" horiz-adv-x="352" 
d="M190 364c-94 0 -142 83 -142 168c0 92 53 187 154 187c94 0 141 -82 141 -168c0 -92 -52 -187 -153 -187zM143 552c0 -37 15 -76 58 -76c36 0 47 27 47 59c0 52 -30 79 -58 79c-24 0 -47 -21 -47 -62z" />
    <glyph glyph-name="onesuperior" unicode="&#xb9;" horiz-adv-x="252" 
d="M126 684l-64 -7l17 142l178 20l-8 -62v-354l-123 -27v288z" />
    <glyph glyph-name="twosuperior" unicode="&#xb2;" horiz-adv-x="420" 
d="M52 692c50 88 132 173 239 173c67 0 120 -58 120 -123c0 -61 -32 -117 -76 -165h85l-18 -150c-100 -1 -220 -1 -320 -1v131c60 32 116 68 164 115c33 33 33 44 21 44c-13 0 -40 -13 -58 -27c-25 -20 -37 -42 -53 -70z" />
    <glyph glyph-name="threesuperior" unicode="&#xb3;" horiz-adv-x="378" 
d="M164 408c-56 0 -93 9 -144 30l59 130c27 -11 64 -23 97 -23c10 0 21 1 30 4c-26 6 -53 10 -76 11l-27 129c28 8 55 17 79 32c-5 1 -11 2 -14 2c-21 0 -40 -3 -61 -8h1c-20 -6 -37 -14 -55 -22l-26 129c46 21 98 39 150 39c76 0 131 -28 140 -105c1 -3 1 -8 1 -11
c-1 -29 -9 -54 -21 -76c40 -16 71 -42 71 -84c0 -105 -106 -177 -204 -177z" />
    <glyph glyph-name="fraction" unicode="&#x2044;" horiz-adv-x="130" 
d="M-104 746l86 -92l-510 -700l-86 92z" />
    <glyph glyph-name="onequarter" unicode="&#xbc;" horiz-adv-x="747" 
d="M393 70l16 141v1l138 226l71 -51v3l124 26v-410l-124 -27v91h-225zM135 -46l-85 92l510 700l85 -92zM159 684l-64 -7l17 142l177 20l-7 -62v-354l-123 -27v288zM618 325l-69 -112h69v112z" />
    <glyph glyph-name="onehalf" unicode="&#xbd;" horiz-adv-x="818" 
d="M550 193l-104 74c50 87 132 172 239 172c67 0 120 -57 120 -123c0 -61 -32 -116 -76 -165c28 0 56 0 85 1l-18 -151c-100 0 -220 0 -320 -1v131c60 32 116 68 164 116c32 32 33 44 21 44c-13 0 -40 -13 -58 -28c-26 -20 -37 -42 -53 -70zM135 -46l-85 92l510 700l85 -92z
M159 684l-64 -7l17 142l177 20l-7 -62v-354l-123 -27v288z" />
    <glyph glyph-name="threequarters" unicode="&#xbe;" horiz-adv-x="763" 
d="M62 438l59 130c27 -11 64 -23 97 -23c10 0 21 1 30 4c-27 6 -54 10 -76 11l-27 129c27 8 55 17 79 32c-6 1 -10 2 -15 2c-20 0 -40 -3 -60 -8h1c-20 -6 -37 -14 -55 -22l-26 129c46 21 98 39 150 39c76 0 131 -28 140 -105c1 -3 1 -8 1 -11c-2 -29 -9 -54 -21 -76
c40 -16 71 -42 71 -84c0 -105 -106 -177 -204 -177c-56 0 -93 9 -144 30zM420 70l16 141v1l138 226l71 -51v3l124 26v-410l-124 -27v91h-225zM162 -46l-85 92l509 700l86 -92zM576 213h69v112z" />
    <glyph glyph-name="perthousand" unicode="&#x2030;" horiz-adv-x="1087" 
d="M594 -15c-96 0 -144 85 -144 171c0 93 54 190 156 190c96 0 144 -84 144 -170c0 -94 -54 -191 -156 -191zM66 517c0 93 54 189 156 189c96 0 144 -83 144 -170c0 -94 -54 -190 -156 -190c-96 0 -144 84 -144 171zM933 -15c-95 0 -143 85 -143 171c0 93 54 190 155 190
c96 0 144 -84 144 -170c0 -94 -53 -191 -156 -191zM229 29l275 685l94 -28l-275 -685zM211 599c-6 0 -12 -1 -17 -3l67 -115c7 12 8 25 8 39c0 52 -30 79 -58 79zM595 239c-6 0 -12 -1 -17 -3l67 -115c7 12 8 25 8 39c0 52 -30 79 -58 79zM918 236l67 -115c6 12 8 25 8 39
c0 52 -31 79 -59 79c-6 0 -11 -1 -16 -3zM889 200c-2 -7 -3 -15 -3 -24c0 -40 17 -76 62 -76zM165 560c-1 -7 -2 -14 -2 -23c0 -40 15 -77 61 -77zM549 200c-1 -7 -2 -15 -2 -24c0 -40 16 -76 61 -76z" />
    <glyph glyph-name="mu" unicode="&#xb5;" horiz-adv-x="673" 
d="M244 -122h-178v802l181 39v-248c0 -116 -11 -292 133 -292c78 10 113 56 115 132c3 123 0 246 0 369l181 39c0 -131 4 -269 -2 -401c-7 -175 -129 -345 -315 -345c-43 0 -82 8 -115 23v-118z" />
    <glyph glyph-name="paragraph" unicode="&#xb6;" horiz-adv-x="577" 
d="M70 476c0 134 89 224 224 224h285v-793h-157v748h-46v-498l-1 -250h-61v250h-20c-135 0 -224 90 -224 224v95z" />
    <glyph glyph-name="asciitilde" unicode="~" horiz-adv-x="611" 
d="M84 365c49 53 107 89 181 89c96 0 163 -56 235 -56c12 0 23 3 34 9h-1c4 2 7 4 10 6l68 -110c-40 -31 -77 -51 -129 -51c-80 0 -139 44 -213 54l1 1h-26c-20 0 -41 -7 -57 -18l1 1c-6 -5 -13 -11 -18 -17z" />
    <glyph glyph-name="guilsinglleft" unicode="&#x2039;" horiz-adv-x="272" 
d="M80 253l192 -182l-26 -39l-186 202v39l179 191l26 -39z" />
    <glyph glyph-name="guilsinglright" unicode="&#x203a;" horiz-adv-x="269" 
d="M60 71l191 182l-184 172l26 39l179 -191v-39l-186 -202z" />
    <glyph glyph-name="guillemotleft" unicode="&#xab;" horiz-adv-x="380" 
d="M192 253l192 -182l-26 -39l-186 202v39l179 191l26 -39zM80 253l192 -182l-26 -39l-186 202v39l179 191l26 -39z" />
    <glyph glyph-name="guillemotright" unicode="&#xbb;" horiz-adv-x="378" 
d="M172 71l191 182l-184 172l26 39l179 -191v-39l-186 -202zM60 71l191 182l-184 172l26 39l179 -191v-39l-186 -202z" />
    <glyph glyph-name="breve" unicode="&#x2d8;" horiz-adv-x="391" 
d="M195 642c-99 0 -177 53 -181 157l126 27c-1 -32 53 -38 76 -38c20 0 50 0 51 24l125 2c-4 -107 -96 -172 -197 -172z" />
    <glyph glyph-name="dotaccent" unicode="&#x2d9;" horiz-adv-x="211" 
d="M82 730c0 34 23 57 59 57c35 0 58 -23 58 -57c0 -35 -23 -58 -58 -58c-36 0 -59 23 -59 58z" />
    <glyph glyph-name="ring" unicode="&#x2da;" horiz-adv-x="404" 
d="M14 823c0 113 90 185 198 185c95 0 181 -55 181 -158c0 -113 -89 -185 -198 -185c-95 0 -181 55 -181 158zM195 862c-98 0 -46 -51 17 -51c94 0 57 51 -17 51z" />
    <glyph glyph-name="hungarumlaut" unicode="&#x2dd;" horiz-adv-x="439" 
d="M169 749l75 -32l-46 -192l-112 48zM317 749l75 -32l-46 -192l-112 48z" />
    <glyph glyph-name="ogonek" unicode="&#x2db;" horiz-adv-x="332" 
d="M164 -256c-68 0 -120 53 -120 122c0 49 22 87 48 126c11 17 25 32 27 52l84 2c-2 -67 -74 -102 -59 -152c6 -18 15 -25 26 -25c28 0 66 43 81 64l86 -93c-43 -47 -106 -96 -173 -96z" />
    <glyph glyph-name="caron" unicode="&#x2c7;" horiz-adv-x="566" 
d="M165 802l144 -133l134 126l115 -79l-191 -179h-115l-202 186z" />
    <glyph glyph-name="dotlessi" unicode="&#x131;" horiz-adv-x="248" 
d="M69 684l152 33l30 -695l-211 -46z" />
    <glyph glyph-name="grave" unicode="`" horiz-adv-x="281" 
d="M244 631l-75 -32l-83 176l112 48z" />
    <glyph glyph-name="circumflex" unicode="&#x2c6;" horiz-adv-x="559" 
d="M309 670l-144 -133l-115 79l202 186h115l191 -179l-115 -79z" />
    <glyph glyph-name="dieresis" unicode="&#xa8;" horiz-adv-x="340" 
d="M297 673c-36 0 -59 23 -59 58c0 34 23 57 59 57c35 0 58 -23 58 -57c0 -35 -23 -58 -58 -58zM141 673c-36 0 -59 23 -59 58c0 34 23 57 59 57c35 0 58 -23 58 -57c0 -35 -23 -58 -58 -58z" />
    <glyph glyph-name="acute" unicode="&#xb4;" horiz-adv-x="281" 
d="M169 749l75 -32l-46 -192l-112 48z" />
    <glyph glyph-name="cedilla" unicode="&#xb8;" horiz-adv-x="339" 
d="M216 -256c-66 0 -130 49 -172 96l85 93c15 -21 53 -64 81 -64c11 0 20 7 26 25c15 50 -57 85 -58 152l83 -2c3 -20 16 -35 27 -52c27 -39 49 -77 49 -126c0 -69 -53 -122 -121 -122z" />
    <glyph glyph-name="Agrave" unicode="&#xc0;" 
d="M8 -5l303 767l178 -62l291 -702l-187 -80l-46 121l-313 -32l-27 -75zM394 442l-85 -232l174 -2zM476 831l-75 -32l-83 176l112 48z" />
    <glyph glyph-name="Aacute" unicode="&#xc1;" 
d="M8 -5l303 767l178 -62l291 -702l-187 -80l-46 121l-313 -32l-27 -75zM394 442l-85 -232l174 -2zM401 1024l75 -32l-46 -193l-112 48z" />
    <glyph glyph-name="Acircumflex" unicode="&#xc2;" 
d="M394 442l-85 -232l174 -2zM8 -5l303 767l178 -62l291 -702l-187 -80l-46 121l-313 -32l-27 -75zM345 1024h115l191 -179l-115 -79l-134 126l-144 -133l-115 79z" />
    <glyph glyph-name="Atilde" unicode="&#xc3;" 
d="M207 -68l-199 63l303 767l178 -62l291 -702l-187 -80l-46 121l-313 -32zM196 894c-1 4 -1 7 -1 11c0 68 55 119 122 119c80 0 150 -74 183 -74c12 0 19 10 20 36h79c-1 -68 -40 -125 -113 -125c-60 0 -146 79 -187 79c-14 0 -22 -10 -22 -35c0 -4 0 -7 1 -11h-82z
M309 210l174 -2l-89 234z" />
    <glyph glyph-name="Adieresis" unicode="&#xc4;" 
d="M207 -68l-199 63l303 767l178 -62l291 -702l-187 -80l-46 121l-313 -32zM309 210l174 -2l-89 234zM475 909c-36 0 -59 23 -59 58c0 34 23 57 59 57c35 0 58 -23 58 -57c0 -35 -23 -58 -58 -58zM320 909c-36 0 -59 23 -59 58c0 34 23 57 59 57c35 0 58 -23 58 -57
c0 -35 -23 -58 -58 -58z" />
    <glyph glyph-name="Aring" unicode="&#xc5;" 
d="M8 -5l274 695c-46 26 -78 70 -78 133c0 113 90 185 199 185c95 0 180 -55 180 -158c0 -72 -36 -127 -90 -158l287 -694l-187 -80l-46 121l-313 -32l-27 -75zM309 210l174 -2l-89 234zM386 862c-98 0 -47 -51 17 -51c94 0 56 51 -17 51z" />
    <glyph glyph-name="AE" unicode="&#xc6;" horiz-adv-x="1078" 
d="M8 -5l303 767l178 -62l113 -273c4 91 7 181 11 269l127 7c104 9 208 17 312 25l-29 -243c-82 7 -165 13 -247 20l4 -106c84 19 168 37 253 56l-29 -243c-72 0 -144 0 -216 1l2 -45c89 10 181 21 262 27l-29 -243c-98 8 -211 10 -317 14l-113 -48l-46 121l-313 -32
l-27 -75zM309 210l174 -2l-89 234z" />
    <glyph glyph-name="Ccedilla" unicode="&#xc7;" horiz-adv-x="632" 
d="M365 -27c-199 0 -299 165 -299 348c0 189 110 385 317 385c104 0 187 -49 240 -138l-153 -136c-27 45 -70 68 -110 68c-59 0 -113 -47 -113 -140c0 -87 36 -179 136 -179c34 0 61 8 83 34l121 -132c-38 -45 -84 -78 -137 -95c25 -38 45 -75 45 -122
c0 -69 -52 -122 -120 -122c-67 0 -130 49 -172 96l85 93c15 -21 53 -64 81 -64c11 0 20 7 26 25c8 28 -11 52 -30 79z" />
    <glyph glyph-name="Eth" unicode="&#xd0;" horiz-adv-x="624" 
d="M-54 283l23 122h49l11 207l-3 73c55 6 109 12 165 12c183 0 365 -69 365 -283c0 -242 -221 -386 -440 -409c-19 -2 -39 -5 -59 -5h-28l-32 -7l15 290h-66zM189 463l3 -58h163l-23 -122h-135l3 -79c90 28 173 80 173 170c0 87 -123 89 -184 89z" />
    <glyph glyph-name="Dcroat" unicode="&#x110;" horiz-adv-x="624" 
d="M-54 283l23 122h49l11 207l-3 73c55 6 109 12 165 12c183 0 365 -69 365 -283c0 -242 -221 -386 -440 -409c-19 -2 -39 -5 -59 -5h-28l-32 -7l15 290h-66zM189 463l3 -58h163l-23 -122h-135l3 -79c90 28 173 80 173 170c0 87 -123 89 -184 89z" />
    <glyph glyph-name="Egrave" unicode="&#xc8;" horiz-adv-x="556" 
d="M56 -23c9 236 18 488 27 723l128 7c103 8 207 17 311 25l-29 -243c-82 7 -164 13 -247 20c2 -35 3 -70 5 -106c84 19 168 37 252 56l-29 -244c-72 1 -144 1 -216 1c1 -14 2 -29 2 -44c90 10 181 21 262 27l-28 -243c-137 11 -302 10 -438 21zM227 976l112 48l46 -193
l-75 -32z" />
    <glyph glyph-name="Eacute" unicode="&#xc9;" horiz-adv-x="556" 
d="M56 -23c9 236 18 488 27 723l128 7c103 8 207 17 311 25l-29 -243c-82 7 -164 13 -247 20c2 -35 3 -70 5 -106c84 19 168 37 252 56l-29 -244c-72 1 -144 1 -216 1c1 -14 2 -29 2 -44c90 10 181 21 262 27l-28 -243c-137 11 -302 10 -438 21zM227 847l83 177l75 -32
l-46 -193z" />
    <glyph glyph-name="Ecircumflex" unicode="&#xca;" horiz-adv-x="556" 
d="M490 -44c-137 11 -302 10 -438 21c9 236 18 488 27 723l128 7c103 8 207 17 311 25l-29 -243c-82 7 -164 13 -247 20c2 -35 3 -70 5 -106c84 19 168 37 252 56l-29 -244c-72 1 -144 1 -216 1c1 -14 2 -29 2 -44c90 10 181 21 262 27zM163 759l-115 79l202 186h115
l191 -179l-115 -79l-134 126z" />
    <glyph glyph-name="Edieresis" unicode="&#xcb;" horiz-adv-x="556" 
d="M494 -44c-137 11 -302 10 -438 21c9 236 18 488 27 723l128 7c103 8 207 17 311 25l-29 -243c-82 7 -164 13 -247 20c2 -35 3 -70 5 -106c84 19 168 37 252 56l-29 -244c-72 1 -144 1 -216 1c1 -14 2 -29 2 -44c90 10 181 21 262 27zM325 836c0 34 23 57 59 57
c35 0 58 -23 58 -57c0 -35 -23 -58 -58 -58c-36 0 -59 23 -59 58zM170 836c0 34 23 57 59 57c35 0 58 -23 58 -57c0 -35 -23 -58 -58 -58c-36 0 -59 23 -59 58z" />
    <glyph glyph-name="Igrave" unicode="&#xcc;" horiz-adv-x="248" 
d="M69 684l152 33l30 -695l-211 -46zM223 831l-75 -32l-83 177l112 48z" />
    <glyph glyph-name="Iacute" unicode="&#xcd;" horiz-adv-x="248" 
d="M69 684l152 33l30 -695l-211 -46zM148 1024l75 -32l-46 -193l-112 48z" />
    <glyph glyph-name="Icircumflex" unicode="&#xce;" horiz-adv-x="248" 
d="M-110 -24l29 708l152 33l30 -695zM-1 892l-144 -133l-115 79l202 186h115l191 -179l-115 -79z" />
    <glyph glyph-name="Idieresis" unicode="&#xcf;" horiz-adv-x="248" 
d="M219 22l-211 -46l29 708l152 33zM190 778c-36 0 -59 23 -59 58c0 34 23 57 59 57c35 0 58 -23 58 -57c0 -35 -23 -58 -58 -58zM-24 836c0 34 23 57 59 57c35 0 58 -23 58 -57c0 -35 -23 -58 -58 -58c-36 0 -59 23 -59 58z" />
    <glyph glyph-name="Lslash" unicode="&#x141;" horiz-adv-x="524" 
d="M73 303c-6 150 -12 301 -17 443l211 -46c-6 -127 -11 -262 -16 -397h261v-52h-264c-1 -25 -1 -49 -2 -74c92 7 184 15 276 22l-28 -243c-137 11 -273 22 -409 34l2 20h-2c-3 78 -7 159 -10 241h-7v52h5z" />
    <glyph glyph-name="Ntilde" unicode="&#xd1;" horiz-adv-x="761" 
d="M72 -23l6 700l211 46v-1l277 -356v311l211 46v-700l-211 -46v1l-1 -1l-279 360l-3 -314zM215 894c0 4 -1 7 -1 11c0 68 55 119 123 119c79 0 150 -74 183 -74c12 0 19 10 20 36h79c-1 -68 -40 -125 -113 -125c-61 0 -147 79 -187 79c-14 0 -23 -10 -23 -35
c0 -4 1 -7 1 -11h-82z" />
    <glyph glyph-name="Ograve" unicode="&#xd2;" horiz-adv-x="672" 
d="M359 -27c-195 0 -293 171 -293 348c0 189 110 385 317 385c195 0 293 -170 293 -346c0 -191 -109 -387 -317 -387zM247 360c0 -87 36 -179 136 -179c85 0 112 63 112 140c0 121 -71 183 -136 183c-58 0 -112 -47 -112 -144zM290 976l112 48l46 -193l-75 -32z" />
    <glyph glyph-name="Oacute" unicode="&#xd3;" horiz-adv-x="672" 
d="M359 -27c-195 0 -293 171 -293 348c0 189 110 385 317 385c195 0 293 -170 293 -346c0 -191 -109 -387 -317 -387zM247 360c0 -87 36 -179 136 -179c85 0 112 63 112 140c0 121 -71 183 -136 183c-58 0 -112 -47 -112 -144zM290 847l83 177l75 -32l-46 -193z" />
    <glyph glyph-name="Ocircumflex" unicode="&#xd4;" horiz-adv-x="672" 
d="M66 321c0 189 110 385 317 385c195 0 293 -170 293 -346c0 -191 -109 -387 -317 -387c-195 0 -293 171 -293 348zM247 360c0 -87 36 -179 136 -179c85 0 112 63 112 140c0 121 -71 183 -136 183c-58 0 -112 -47 -112 -144zM115 838l202 186h115l191 -179l-115 -79
l-134 126l-144 -133z" />
    <glyph glyph-name="Otilde" unicode="&#xd5;" horiz-adv-x="672" 
d="M359 -27c-195 0 -293 171 -293 348c0 189 110 385 317 385c195 0 293 -170 293 -346c0 -191 -109 -387 -317 -387zM359 504c-58 0 -112 -47 -112 -144c0 -87 36 -179 136 -179c85 0 112 63 112 140c0 121 -71 183 -136 183zM167 905c0 68 55 119 122 119
c80 0 150 -74 183 -74c12 0 19 10 20 36h79c-1 -68 -40 -125 -113 -125c-60 0 -146 79 -187 79c-14 0 -22 -10 -22 -35c0 -4 0 -7 1 -11h-82c-1 4 -1 7 -1 11z" />
    <glyph glyph-name="Odieresis" unicode="&#xd6;" horiz-adv-x="672" 
d="M66 321c0 189 110 385 317 385c195 0 293 -170 293 -346c0 -191 -109 -387 -317 -387c-195 0 -293 171 -293 348zM359 504c-58 0 -112 -47 -112 -144c0 -87 36 -179 136 -179c85 0 112 63 112 140c0 121 -71 183 -136 183zM447 778c-36 0 -59 23 -59 58c0 34 23 57 59 57
c35 0 58 -23 58 -57c0 -35 -23 -58 -58 -58zM292 778c-36 0 -59 23 -59 58c0 34 23 57 59 57c35 0 58 -23 58 -57c0 -35 -23 -58 -58 -58z" />
    <glyph glyph-name="Oslash" unicode="&#xd8;" horiz-adv-x="672" 
d="M66 321c0 189 110 385 317 385c195 0 293 -170 293 -346c0 -191 -109 -387 -317 -387c-195 0 -293 171 -293 348zM352 185c9 -3 20 -4 31 -4c85 0 112 63 112 140c0 56 -15 99 -38 129zM247 360c0 -40 7 -80 25 -112l101 255c-5 1 -10 1 -14 1c-58 0 -112 -47 -112 -144z
" />
    <glyph glyph-name="OE" unicode="&#x152;" horiz-adv-x="1044" 
d="M66 321c0 189 110 385 317 385c100 0 174 -44 222 -111c2 34 3 67 5 100l127 7c104 9 207 17 311 26l-29 -244c-82 7 -164 14 -247 21c2 -36 3 -71 5 -106c84 18 168 37 252 55l-28 -243c-72 0 -144 0 -216 1c0 -15 1 -30 2 -45c89 10 180 21 261 28l-28 -244
c-136 11 -302 10 -438 22c1 36 3 73 4 110c-53 -66 -129 -110 -227 -110c-195 0 -293 171 -293 348zM247 360c0 -87 36 -179 136 -179c85 0 112 63 112 140c0 121 -71 183 -136 183c-58 0 -112 -47 -112 -144z" />
    <glyph glyph-name="Scaron" unicode="&#x160;" horiz-adv-x="549" 
d="M29 428c-61 158 75 285 233 285c58 0 114 -19 167 -41l-71 -166c-39 13 -77 23 -118 23c-181 0 238 -96 238 -317c0 -142 -145 -230 -273 -230c-89 0 -152 28 -227 71l130 212c44 -29 76 -44 129 -51c68 1 -166 104 -208 214zM207 759l-202 186l115 79l140 -130l138 130
l115 -79l-191 -186h-115z" />
    <glyph glyph-name="Ugrave" unicode="&#xd9;" horiz-adv-x="731" 
d="M66 680l181 39v-248c0 -116 -11 -292 133 -292c78 10 113 56 115 132c3 123 0 246 0 369l181 39c0 -131 4 -269 -2 -401c-7 -175 -129 -345 -315 -345c-195 0 -293 171 -293 348v359zM320 976l112 48l45 -193l-74 -32z" />
    <glyph glyph-name="Uacute" unicode="&#xda;" horiz-adv-x="731" 
d="M66 680l181 39v-248c0 -116 -11 -292 133 -292c78 10 113 56 115 132c3 123 0 246 0 369l181 39c0 -131 4 -269 -2 -401c-7 -175 -129 -345 -315 -345c-195 0 -293 171 -293 348v359zM320 847l83 177l74 -32l-45 -193z" />
    <glyph glyph-name="Ucircumflex" unicode="&#xdb;" horiz-adv-x="731" 
d="M359 -27c-195 0 -293 171 -293 348v359l181 39v-248c0 -116 -11 -292 133 -292c78 10 113 56 115 132c3 123 0 246 0 369l181 39c0 -131 4 -269 -2 -401c-7 -175 -129 -345 -315 -345zM260 759l-115 79l202 186h115l191 -179l-115 -79l-135 126z" />
    <glyph glyph-name="Udieresis" unicode="&#xdc;" horiz-adv-x="731" 
d="M66 321v359l181 39v-248c0 -116 -11 -292 133 -292c78 10 113 56 115 132c3 123 0 246 0 369l181 39c0 -131 4 -269 -2 -401c-7 -175 -129 -345 -315 -345c-195 0 -293 171 -293 348zM418 836c0 34 23 57 59 57c35 0 58 -23 58 -57c0 -35 -23 -58 -58 -58
c-36 0 -59 23 -59 58zM262 836c0 34 23 57 59 57c35 0 58 -23 58 -57c0 -35 -23 -58 -58 -58c-36 0 -59 23 -59 58z" />
    <glyph glyph-name="Ydieresis" unicode="&#x178;" horiz-adv-x="566" 
d="M155 230l-213 391l178 159l156 -286l182 266l167 -119l-258 -377l-22 -262l-209 -3zM332 778c-36 0 -59 23 -59 58c0 34 23 57 59 57c35 0 58 -23 58 -57c0 -35 -23 -58 -58 -58zM118 836c0 34 23 57 59 57c35 0 58 -23 58 -57c0 -35 -23 -58 -58 -58
c-36 0 -59 23 -59 58z" />
    <glyph glyph-name="Yacute" unicode="&#xdd;" horiz-adv-x="566" 
d="M155 230l-213 391l178 159l156 -286l182 266l167 -119l-258 -377l-22 -262l-209 -3zM258 1024l75 -32l-46 -193l-112 48z" />
    <glyph glyph-name="Zcaron" unicode="&#x17d;" horiz-adv-x="698" 
d="M42 96l345 381l-308 -20l28 243h482l112 -184l-355 -331l319 59l-28 -243c-164 -2 -328 -1 -492 -3zM116 945l115 79l140 -130l138 130l115 -79l-191 -186h-115z" />
    <glyph glyph-name="agrave" unicode="&#xe0;" 
d="M8 -5l303 767l178 -62l291 -702l-187 -80l-46 121l-313 -32l-27 -75zM394 442l-85 -232l174 -2zM476 831l-75 -32l-83 176l112 48z" />
    <glyph glyph-name="aacute" unicode="&#xe1;" 
d="M8 -5l303 767l178 -62l291 -702l-187 -80l-46 121l-313 -32l-27 -75zM394 442l-85 -232l174 -2zM401 1024l75 -32l-46 -193l-112 48z" />
    <glyph glyph-name="acircumflex" unicode="&#xe2;" 
d="M394 442l-85 -232l174 -2zM8 -5l303 767l178 -62l291 -702l-187 -80l-46 121l-313 -32l-27 -75zM345 1024h115l191 -179l-115 -79l-134 126l-144 -133l-115 79z" />
    <glyph glyph-name="atilde" unicode="&#xe3;" 
d="M207 -68l-199 63l303 767l178 -62l291 -702l-187 -80l-46 121l-313 -32zM196 894c-1 4 -1 7 -1 11c0 68 55 119 122 119c80 0 150 -74 183 -74c12 0 19 10 20 36h79c-1 -68 -40 -125 -113 -125c-60 0 -146 79 -187 79c-14 0 -22 -10 -22 -35c0 -4 0 -7 1 -11h-82z
M309 210l174 -2l-89 234z" />
    <glyph glyph-name="adieresis" unicode="&#xe4;" 
d="M207 -68l-199 63l303 767l178 -62l291 -702l-187 -80l-46 121l-313 -32zM309 210l174 -2l-89 234zM475 909c-36 0 -59 23 -59 58c0 34 23 57 59 57c35 0 58 -23 58 -57c0 -35 -23 -58 -58 -58zM320 909c-36 0 -59 23 -59 58c0 34 23 57 59 57c35 0 58 -23 58 -57
c0 -35 -23 -58 -58 -58z" />
    <glyph glyph-name="aring" unicode="&#xe5;" 
d="M8 -5l274 695c-46 26 -78 70 -78 133c0 113 90 185 199 185c95 0 180 -55 180 -158c0 -72 -36 -127 -90 -158l287 -694l-187 -80l-46 121l-313 -32l-27 -75zM309 210l174 -2l-89 234zM386 862c-98 0 -47 -51 17 -51c94 0 56 51 -17 51z" />
    <glyph glyph-name="ae" unicode="&#xe6;" horiz-adv-x="1078" 
d="M8 -5l303 767l178 -62l113 -273c4 91 7 181 11 269l127 7c104 9 208 17 312 25l-29 -243c-82 7 -165 13 -247 20l4 -106c84 19 168 37 253 56l-29 -243c-72 0 -144 0 -216 1l2 -45c89 10 181 21 262 27l-29 -243c-98 8 -211 10 -317 14l-113 -48l-46 121l-313 -32
l-27 -75zM309 210l174 -2l-89 234z" />
    <glyph glyph-name="ccedilla" unicode="&#xe7;" horiz-adv-x="632" 
d="M365 -27c-199 0 -299 165 -299 348c0 189 110 385 317 385c104 0 187 -49 240 -138l-153 -136c-27 45 -70 68 -110 68c-59 0 -113 -47 -113 -140c0 -87 36 -179 136 -179c34 0 61 8 83 34l121 -132c-38 -45 -84 -78 -137 -95c25 -38 45 -75 45 -122
c0 -69 -52 -122 -120 -122c-67 0 -130 49 -172 96l85 93c15 -21 53 -64 81 -64c11 0 20 7 26 25c8 28 -11 52 -30 79z" />
    <glyph glyph-name="dcroat" unicode="&#x111;" horiz-adv-x="624" 
d="M-54 283l23 122h49l11 207l-3 73c55 6 109 12 165 12c183 0 365 -69 365 -283c0 -242 -221 -386 -440 -409c-19 -2 -39 -5 -59 -5h-28l-32 -7l15 290h-66zM189 463l3 -58h163l-23 -122h-135l3 -79c90 28 173 80 173 170c0 87 -123 89 -184 89z" />
    <glyph glyph-name="egrave" unicode="&#xe8;" horiz-adv-x="556" 
d="M56 -23c9 236 18 488 27 723l128 7c103 8 207 17 311 25l-29 -243c-82 7 -164 13 -247 20c2 -35 3 -70 5 -106c84 19 168 37 252 56l-29 -244c-72 1 -144 1 -216 1c1 -14 2 -29 2 -44c90 10 181 21 262 27l-28 -243c-137 11 -302 10 -438 21zM227 1074l112 48l46 -192
l-75 -32z" />
    <glyph glyph-name="eacute" unicode="&#xe9;" horiz-adv-x="556" 
d="M56 -23c9 236 18 488 27 723l128 7c103 8 207 17 311 25l-29 -243c-82 7 -164 13 -247 20c2 -35 3 -70 5 -106c84 19 168 37 252 56l-29 -244c-72 1 -144 1 -216 1c1 -14 2 -29 2 -44c90 10 181 21 262 27l-28 -243c-137 11 -302 10 -438 21zM227 946l83 176l75 -32
l-46 -192z" />
    <glyph glyph-name="ecircumflex" unicode="&#xea;" horiz-adv-x="556" 
d="M490 -44c-137 11 -302 10 -438 21c9 236 18 488 27 723l128 7c103 8 207 17 311 25l-29 -243c-82 7 -164 13 -247 20c2 -35 3 -70 5 -106c84 19 168 37 252 56l-29 -244c-72 1 -144 1 -216 1c1 -14 2 -29 2 -44c90 10 181 21 262 27zM163 858l-115 78l202 186l58 -39
l57 39l191 -179l-115 -78l-134 126z" />
    <glyph glyph-name="edieresis" unicode="&#xeb;" horiz-adv-x="556" 
d="M494 -44c-137 11 -302 10 -438 21c9 236 18 488 27 723l128 7c103 8 207 17 311 25l-29 -243c-82 7 -164 13 -247 20c2 -35 3 -70 5 -106c84 19 168 37 252 56l-29 -244c-72 1 -144 1 -216 1c1 -14 2 -29 2 -44c90 10 181 21 262 27zM325 934c0 34 23 57 59 57
c35 0 58 -23 58 -57c0 -35 -23 -58 -58 -58c-36 0 -59 23 -59 58zM170 934c0 34 23 57 59 57c35 0 58 -23 58 -57c0 -35 -23 -58 -58 -58c-36 0 -59 23 -59 58z" />
    <glyph glyph-name="igrave" unicode="&#xec;" horiz-adv-x="248" 
d="M69 684l152 33l30 -695l-211 -46zM223 930l-75 -32l-83 176l112 48z" />
    <glyph glyph-name="iacute" unicode="&#xed;" horiz-adv-x="248" 
d="M69 684l152 33l30 -695l-211 -46zM148 1122l75 -32l-46 -192l-112 48z" />
    <glyph glyph-name="icircumflex" unicode="&#xee;" horiz-adv-x="248" 
d="M-110 -24l29 708l152 33l30 -695zM-1 991l-144 -133l-115 78l202 186l58 -39l57 39l191 -179l-115 -78z" />
    <glyph glyph-name="idieresis" unicode="&#xef;" horiz-adv-x="248" 
d="M219 22l-211 -46l29 708l152 33zM190 876c-36 0 -59 23 -59 58c0 34 23 57 59 57c35 0 58 -23 58 -57c0 -35 -23 -58 -58 -58zM-24 934c0 34 23 57 59 57c35 0 58 -23 58 -57c0 -35 -23 -58 -58 -58c-36 0 -59 23 -59 58z" />
    <glyph glyph-name="lslash" unicode="&#x142;" horiz-adv-x="524" 
d="M73 303c-6 150 -12 301 -17 443l211 -46c-6 -127 -11 -262 -16 -397h261v-52h-264c-1 -25 -1 -49 -2 -74c92 7 184 15 276 22l-28 -243c-137 11 -273 22 -409 34l2 20h-2c-3 78 -7 159 -10 241h-7v52h5z" />
    <glyph glyph-name="ntilde" unicode="&#xf1;" horiz-adv-x="761" 
d="M72 -23l6 700l211 46v-1l277 -356v311l211 46v-700l-211 -46v1l-1 -1l-279 360l-3 -314zM215 905c0 3 -1 7 -1 10c0 69 55 119 123 119c79 0 150 -73 183 -73c12 0 19 9 20 35h79c-1 -68 -40 -124 -113 -124c-61 0 -147 78 -187 78c-14 0 -23 -9 -23 -35c0 -3 1 -7 1 -10
h-82z" />
    <glyph glyph-name="ograve" unicode="&#xf2;" horiz-adv-x="672" 
d="M359 -27c-195 0 -293 171 -293 348c0 189 110 385 317 385c195 0 293 -170 293 -346c0 -191 -109 -387 -317 -387zM247 360c0 -87 36 -179 136 -179c85 0 112 63 112 140c0 121 -71 183 -136 183c-58 0 -112 -47 -112 -144zM290 976l112 48l46 -193l-75 -32z" />
    <glyph glyph-name="oacute" unicode="&#xf3;" horiz-adv-x="672" 
d="M359 -27c-195 0 -293 171 -293 348c0 189 110 385 317 385c195 0 293 -170 293 -346c0 -191 -109 -387 -317 -387zM247 360c0 -87 36 -179 136 -179c85 0 112 63 112 140c0 121 -71 183 -136 183c-58 0 -112 -47 -112 -144zM290 847l83 177l75 -32l-46 -193z" />
    <glyph glyph-name="ocircumflex" unicode="&#xf4;" horiz-adv-x="672" 
d="M66 321c0 189 110 385 317 385c195 0 293 -170 293 -346c0 -191 -109 -387 -317 -387c-195 0 -293 171 -293 348zM247 360c0 -87 36 -179 136 -179c85 0 112 63 112 140c0 121 -71 183 -136 183c-58 0 -112 -47 -112 -144zM115 838l202 186h115l191 -179l-115 -79
l-134 126l-144 -133z" />
    <glyph glyph-name="otilde" unicode="&#xf5;" horiz-adv-x="672" 
d="M359 -27c-195 0 -293 171 -293 348c0 189 110 385 317 385c195 0 293 -170 293 -346c0 -191 -109 -387 -317 -387zM359 504c-58 0 -112 -47 -112 -144c0 -87 36 -179 136 -179c85 0 112 63 112 140c0 121 -71 183 -136 183zM167 905c0 68 55 119 122 119
c80 0 150 -74 183 -74c12 0 19 10 20 36h79c-1 -68 -40 -125 -113 -125c-60 0 -146 79 -187 79c-14 0 -22 -10 -22 -35c0 -4 0 -7 1 -11h-82c-1 4 -1 7 -1 11z" />
    <glyph glyph-name="odieresis" unicode="&#xf6;" horiz-adv-x="672" 
d="M66 321c0 189 110 385 317 385c195 0 293 -170 293 -346c0 -191 -109 -387 -317 -387c-195 0 -293 171 -293 348zM359 504c-58 0 -112 -47 -112 -144c0 -87 36 -179 136 -179c85 0 112 63 112 140c0 121 -71 183 -136 183zM447 778c-36 0 -59 23 -59 58c0 34 23 57 59 57
c35 0 58 -23 58 -57c0 -35 -23 -58 -58 -58zM292 778c-36 0 -59 23 -59 58c0 34 23 57 59 57c35 0 58 -23 58 -57c0 -35 -23 -58 -58 -58z" />
    <glyph glyph-name="oslash" unicode="&#xf8;" horiz-adv-x="672" 
d="M66 321c0 189 110 385 317 385c195 0 293 -170 293 -346c0 -191 -109 -387 -317 -387c-195 0 -293 171 -293 348zM352 185c9 -3 20 -4 31 -4c85 0 112 63 112 140c0 56 -15 99 -38 129zM247 360c0 -40 7 -80 25 -112l101 255c-5 1 -10 1 -14 1c-58 0 -112 -47 -112 -144z
" />
    <glyph glyph-name="oe" unicode="&#x153;" horiz-adv-x="1044" 
d="M66 321c0 189 110 385 317 385c100 0 174 -44 222 -111c2 34 3 67 5 100l127 7c104 9 207 17 311 26l-29 -244c-82 7 -164 14 -247 21c2 -36 3 -71 5 -106c84 18 168 37 252 55l-28 -243c-72 0 -144 0 -216 1c0 -15 1 -30 2 -45c89 10 180 21 261 28l-28 -244
c-136 11 -302 10 -438 22c1 36 3 73 4 110c-53 -66 -129 -110 -227 -110c-195 0 -293 171 -293 348zM247 360c0 -87 36 -179 136 -179c85 0 112 63 112 140c0 121 -71 183 -136 183c-58 0 -112 -47 -112 -144z" />
    <glyph glyph-name="scaron" unicode="&#x161;" horiz-adv-x="549" 
d="M29 428c-61 158 75 285 233 285c58 0 114 -19 167 -41l-71 -166c-39 13 -77 23 -118 23c-181 0 238 -96 238 -317c0 -142 -145 -230 -273 -230c-89 0 -152 28 -227 71l130 212c44 -29 76 -44 129 -51c68 1 -166 104 -208 214zM207 759l-202 186l115 79l140 -130l138 130
l115 -79l-191 -186h-115z" />
    <glyph glyph-name="ugrave" unicode="&#xf9;" horiz-adv-x="731" 
d="M66 680l181 39v-248c0 -116 -11 -292 133 -292c78 10 113 56 115 132c3 123 0 246 0 369l181 39c0 -131 4 -269 -2 -401c-7 -175 -129 -345 -315 -345c-195 0 -293 171 -293 348v359zM320 976l112 48l45 -193l-74 -32z" />
    <glyph glyph-name="uacute" unicode="&#xfa;" horiz-adv-x="731" 
d="M66 680l181 39v-248c0 -116 -11 -292 133 -292c78 10 113 56 115 132c3 123 0 246 0 369l181 39c0 -131 4 -269 -2 -401c-7 -175 -129 -345 -315 -345c-195 0 -293 171 -293 348v359zM320 847l83 177l74 -32l-45 -193z" />
    <glyph glyph-name="ucircumflex" unicode="&#xfb;" horiz-adv-x="731" 
d="M359 -27c-195 0 -293 171 -293 348v359l181 39v-248c0 -116 -11 -292 133 -292c78 10 113 56 115 132c3 123 0 246 0 369l181 39c0 -131 4 -269 -2 -401c-7 -175 -129 -345 -315 -345zM260 759l-115 79l202 186h115l191 -179l-115 -79l-135 126z" />
    <glyph glyph-name="udieresis" unicode="&#xfc;" horiz-adv-x="731" 
d="M66 321v359l181 39v-248c0 -116 -11 -292 133 -292c78 10 113 56 115 132c3 123 0 246 0 369l181 39c0 -131 4 -269 -2 -401c-7 -175 -129 -345 -315 -345c-195 0 -293 171 -293 348zM418 836c0 34 23 57 59 57c35 0 58 -23 58 -57c0 -35 -23 -58 -58 -58
c-36 0 -59 23 -59 58zM262 836c0 34 23 57 59 57c35 0 58 -23 58 -57c0 -35 -23 -58 -58 -58c-36 0 -59 23 -59 58z" />
    <glyph glyph-name="yacute" unicode="&#xfd;" horiz-adv-x="566" 
d="M155 230l-213 391l178 159l156 -286l182 266l167 -119l-258 -377l-22 -262l-209 -3zM258 1024l75 -32l-46 -193l-112 48z" />
    <glyph glyph-name="ydieresis" unicode="&#xff;" horiz-adv-x="566" 
d="M155 230l-213 391l178 159l156 -286l182 266l167 -119l-258 -377l-22 -262l-209 -3zM332 778c-36 0 -59 23 -59 58c0 34 23 57 59 57c35 0 58 -23 58 -57c0 -35 -23 -58 -58 -58zM118 836c0 34 23 57 59 57c35 0 58 -23 58 -57c0 -35 -23 -58 -58 -58
c-36 0 -59 23 -59 58z" />
    <glyph glyph-name="zcaron" unicode="&#x17e;" horiz-adv-x="698" 
d="M42 96l345 381l-308 -20l28 243h482l112 -184l-355 -331l319 59l-28 -243c-164 -2 -328 -1 -492 -3zM116 945l115 79l140 -130l138 130l115 -79l-191 -186h-115z" />
  </font>
</defs>
</svg>
